<svg xmlns="http://www.w3.org/2000/svg" xmlns:xlink="http://www.w3.org/1999/xlink" width="21" height="21" viewBox="0 0 21 21">
  <defs>
    <clipPath id="clip-path">
      <rect id="Rectangle_172" data-name="Rectangle 172" width="21" height="21" transform="translate(39.75 606)" fill="rgba(0,0,0,0.4)"/>
    </clipPath>
  </defs>
  <g id="Affluence" transform="translate(-39.75 -606)" clip-path="url(#clip-path)">
    <path id="Icon_core-graph" data-name="Icon core-graph" d="M19.1,2.25a2.786,2.786,0,0,0-1.484,5.132l-1.8,6.359q-.084-.005-.168-.006a2.739,2.739,0,0,0-1.65.552l-3.334-2.8A2.792,2.792,0,0,0,9.3,8.124a2.754,2.754,0,0,0-3.508.848,2.8,2.8,0,0,0,.31,3.619L4.144,16.533q-.129-.012-.258-.013a2.783,2.783,0,1,0,1.566.491L7.3,13.288a2.746,2.746,0,0,0,2.592-.625l3.228,2.708A2.793,2.793,0,0,0,14.381,19a2.756,2.756,0,0,0,3.66-1.1,2.8,2.8,0,0,0-.917-3.732l1.8-6.359c.056,0,.112.006.168.006a2.784,2.784,0,0,0,0-5.569ZM3.886,20.7A1.392,1.392,0,1,1,5.269,19.3,1.388,1.388,0,0,1,3.886,20.7ZM8.035,12A1.392,1.392,0,1,1,9.417,10.6,1.388,1.388,0,0,1,8.035,12Zm7.606,5.917a1.392,1.392,0,1,1,1.383-1.392A1.388,1.388,0,0,1,15.64,17.912ZM19.1,6.427A1.392,1.392,0,1,1,20.48,5.034,1.388,1.388,0,0,1,19.1,6.427Z" transform="translate(38.887 604.327)" fill="rgba(0,0,0,0.4)"/>
  </g>
</svg>
