<svg xmlns="http://www.w3.org/2000/svg" width="58.177" height="58.177" viewBox="0 0 58.177 58.177">
  <path id="Ajouter" d="M61.222,44.021v.089a1.187,1.187,0,0,1-2.375,0v-.089a1.187,1.187,0,0,1,2.375,0Zm7.955-26.082V54.283a6.947,6.947,0,0,1-6.939,6.939H61.222v1.016a6.947,6.947,0,0,1-6.939,6.939H17.939A6.947,6.947,0,0,1,11,62.238V25.894a6.947,6.947,0,0,1,6.939-6.939h1.016V17.939A6.947,6.947,0,0,1,25.894,11H62.238a6.947,6.947,0,0,1,6.939,6.939Zm-2.375,0a4.57,4.57,0,0,0-4.564-4.565H25.894a4.57,4.57,0,0,0-4.564,4.565v1.016H54.283a6.947,6.947,0,0,1,6.939,6.939V38.267a1.187,1.187,0,0,1-2.375,0V25.894a4.57,4.57,0,0,0-4.564-4.565H17.939a4.57,4.57,0,0,0-4.564,4.565V62.238A4.57,4.57,0,0,0,17.939,66.8H54.283a4.57,4.57,0,0,0,4.564-4.564V49.865a1.187,1.187,0,1,1,2.375,0v8.983h1.016A4.57,4.57,0,0,0,66.8,54.283ZM50.3,42.878H37.3V29.873a1.187,1.187,0,0,0-2.375,0V42.878H21.918a1.187,1.187,0,0,0,0,2.375H34.924V58.258a1.187,1.187,0,0,0,2.375,0V45.253H50.3a1.187,1.187,0,0,0,0-2.375Z" transform="translate(-11 -11)" fill="#f2664f"/>
</svg>
