<svg xmlns="http://www.w3.org/2000/svg" xmlns:xlink="http://www.w3.org/1999/xlink" width="21" height="21" viewBox="0 0 21 21">
  <defs>
    <clipPath id="clip-path">
      <rect id="Rectangle_172" data-name="Rectangle 172" width="21" height="21" transform="translate(39.75 606)" fill="rgba(0,0,0,0.4)"/>
    </clipPath>
  </defs>
  <g id="Caddie" transform="translate(-39.75 -606)" clip-path="url(#clip-path)">
    <g id="Icon_akar-cart" data-name="Icon akar-cart" transform="translate(41.142 602.077)">
      <g id="Tracé_127" data-name="Tracé 127" transform="translate(-6.096 -1.462)" fill="none" stroke-linejoin="round">
        <path d="M7.5,10.5H23.146A2.269,2.269,0,0,1,25.4,13L24.724,19.8a2.269,2.269,0,0,1-2.258,2.043H11.63A2.269,2.269,0,0,1,9.4,20.022Z" stroke="none"/>
        <path d="M 9.329618453979492 11.99999809265137 L 10.87479400634766 19.72774887084961 C 10.94643402099609 20.08611869812012 11.26366424560547 20.34622955322266 11.63002395629883 20.34622955322266 L 22.46563339233398 20.34622955322266 C 22.86249351501465 20.34621810913086 23.19154357910156 20.04841804504395 23.23102378845215 19.65352821350098 L 23.91179275512695 12.84578895568848 C 23.93338394165039 12.62994766235352 23.86226272583008 12.41389846801758 23.71671295166016 12.2530689239502 C 23.57116317749023 12.09223747253418 23.36331367492676 11.99999809265137 23.14645385742188 11.99999809265137 L 9.329618453979492 11.99999809265137 M 7.500003814697266 10.49999809265137 L 23.14645385742188 10.49999809265137 C 23.78748321533203 10.49999809265137 24.39867401123047 10.77118873596191 24.82887268066406 11.24653816223145 C 25.25911331176758 11.72195816040039 25.46814346313477 12.35710906982422 25.40435409545898 12.99503898620605 L 24.72358322143555 19.80277824401855 C 24.60758399963379 20.96278762817383 23.63148498535156 21.84618759155273 22.46568298339844 21.84622955322266 L 11.63002395629883 21.84622955322266 C 11.62975883483887 21.84622955322266 11.62937355041504 21.84622955322266 11.62911033630371 21.84622955322266 C 10.54730796813965 21.84622955322266 9.615951538085938 21.08266067504883 9.403894424438477 20.02175903320312 L 7.500003814697266 10.49999809265137 Z" stroke="none" fill="rgba(0,0,0,0.4)"/>
      </g>
      <path id="Tracé_128" data-name="Tracé 128" d="M7.213,9.2,6.343,5.9a1.135,1.135,0,0,0-1.1-.859H4.373m5.8,19.067h2.269m6.808,0h2.269" transform="translate(-5)" fill="none" stroke="rgba(0,0,0,0.4)" stroke-linecap="round" stroke-linejoin="round" stroke-width="1.5"/>
    </g>
  </g>
</svg>
