<svg xmlns="http://www.w3.org/2000/svg" xmlns:xlink="http://www.w3.org/1999/xlink" width="21" height="21" viewBox="0 0 21 21">
  <defs>
    <clipPath id="clip-path">
      <rect id="Rectangle_172" data-name="Rectangle 172" width="21" height="21" transform="translate(40 573)" fill="rgba(0,0,0,0.4)"/>
    </clipPath>
  </defs>
  <g id="Cadenas" transform="translate(-40 -573)" clip-path="url(#clip-path)">
    <g id="Icon_feather-unlock" data-name="Icon feather-unlock" transform="translate(36.553 570.802)">
      <g id="Tracé_121" data-name="Tracé 121" transform="translate(0 -4.412)" fill="none" stroke-linecap="round" stroke-linejoin="round">
        <path d="M6.6,16.5H21.3a2.061,2.061,0,0,1,2.1,2.02v7.07a2.061,2.061,0,0,1-2.1,2.02H6.6a2.061,2.061,0,0,1-2.1-2.02V18.52A2.061,2.061,0,0,1,6.6,16.5Z" stroke="none"/>
        <path d="M 6.599430084228516 18.00000190734863 C 6.268899917602539 18.00000190734863 6 18.23330116271973 6 18.52007102966309 L 6 25.59031105041504 C 6 25.8770809173584 6.268899917602539 26.11038017272949 6.599430084228516 26.11038017272949 L 21.29547119140625 26.11038017272949 C 21.62599945068359 26.11038017272949 21.89490127563477 25.8770809173584 21.89490127563477 25.59031105041504 L 21.89490127563477 18.52007102966309 C 21.89490127563477 18.23330116271973 21.62599945068359 18.00000190734863 21.29547119140625 18.00000190734863 L 6.599430084228516 18.00000190734863 M 6.599430084228516 16.50000190734863 L 21.29547119140625 16.50000190734863 C 22.4549503326416 16.50000190734863 23.39490127563477 17.40442085266113 23.39490127563477 18.52007102966309 L 23.39490127563477 25.59031105041504 C 23.39490127563477 26.70596122741699 22.4549503326416 27.61038017272949 21.29547119140625 27.61038017272949 L 6.599430084228516 27.61038017272949 C 5.439950942993164 27.61038017272949 4.5 26.70596122741699 4.5 25.59031105041504 L 4.5 18.52007102966309 C 4.5 17.40442085266113 5.439950942993164 16.50000190734863 6.599430084228516 16.50000190734863 Z" stroke="none" fill="rgba(0,0,0,0.4)"/>
      </g>
      <path id="Tracé_122" data-name="Tracé 122" d="M10.5,12.088V8.048a5.127,5.127,0,0,1,4.721-5.03,5.226,5.226,0,0,1,5.671,4.02" transform="translate(-1.801)" fill="none" stroke="rgba(0,0,0,0.4)" stroke-linecap="round" stroke-linejoin="round" stroke-width="1.5"/>
    </g>
  </g>
</svg>
