<svg xmlns="http://www.w3.org/2000/svg" xmlns:xlink="http://www.w3.org/1999/xlink" width="21" height="21" viewBox="0 0 21 21">
  <defs>
    <clipPath id="clip-path">
      <rect id="Rectangle_172" data-name="Rectangle 172" width="21" height="21" transform="translate(40 573)" fill="rgba(0,0,0,0.4)"/>
    </clipPath>
  </defs>
  <g id="Carte_à_puce" data-name="Carte à puce" transform="translate(-40 -573)" clip-path="url(#clip-path)">
    <g id="Layer_x0020_1" transform="translate(39.797 572.796)">
      <path id="Tracé_93" data-name="Tracé 93" d="M2.093,2.881h17.22a1.894,1.894,0,0,1,1.89,1.89V16.636a1.894,1.894,0,0,1-1.89,1.89H2.093A1.894,1.894,0,0,1,.2,16.636V4.771a1.894,1.894,0,0,1,1.89-1.89Zm10,9.634a.525.525,0,0,1,0-1.05h4.935a.525.525,0,0,1,0,1.05Zm0,1.995a.525.525,0,0,1,0-1.05h4.935a.525.525,0,0,1,0,1.05ZM4.377,10.756H7.79a.525.525,0,0,1,.525.525v3.413a.525.525,0,0,1-.525.525H4.377a.525.525,0,0,1-.525-.525V11.281a.525.525,0,0,1,.525-.525Zm2.888,1.05H4.9v2.362H7.265V11.806ZM1.253,5.3h18.9V4.771a.844.844,0,0,0-.84-.84H2.093a.844.844,0,0,0-.84.84V5.3Zm18.9,3.465H1.253v7.875a.844.844,0,0,0,.84.84h17.22a.844.844,0,0,0,.84-.84Zm0-2.415H1.253V7.711h18.9V6.346Z" fill="rgba(0,0,0,0.4)"/>
    </g>
  </g>
</svg>
