<svg xmlns="http://www.w3.org/2000/svg" xmlns:xlink="http://www.w3.org/1999/xlink" width="21" height="21" viewBox="0 0 21 21">
  <defs>
    <clipPath id="clip-path">
      <rect id="Rectangle_125" data-name="Rectangle 125" width="21" height="21" transform="translate(36.5)" fill="#fff"/>
    </clipPath>
  </defs>
  <g id="Check" transform="translate(-36.5)" clip-path="url(#clip-path)">
    <path id="check_circle_24dp_E8EAED_FILL0_wght200_GRAD0_opsz24" d="M12.322-9.441,19.784-16.9l-.826-.826-6.637,6.637L9-14.417l-.826.826ZM14-3.5a10.234,10.234,0,0,1-4.1-.827A10.612,10.612,0,0,1,6.573-6.57,10.6,10.6,0,0,1,4.327-9.9,10.211,10.211,0,0,1,3.5-14a10.234,10.234,0,0,1,.827-4.1A10.612,10.612,0,0,1,6.57-21.427,10.6,10.6,0,0,1,9.9-23.673,10.211,10.211,0,0,1,14-24.5a10.234,10.234,0,0,1,4.1.827,10.612,10.612,0,0,1,3.335,2.243A10.6,10.6,0,0,1,23.673-18.1,10.211,10.211,0,0,1,24.5-14a10.234,10.234,0,0,1-.827,4.1A10.612,10.612,0,0,1,21.43-6.573,10.6,10.6,0,0,1,18.1-4.327,10.211,10.211,0,0,1,14-3.5Zm0-1.167a9.008,9.008,0,0,0,6.621-2.713A9.008,9.008,0,0,0,23.333-14a9.008,9.008,0,0,0-2.712-6.621A9.008,9.008,0,0,0,14-23.333a9.008,9.008,0,0,0-6.621,2.712A9.008,9.008,0,0,0,4.667-14,9.008,9.008,0,0,0,7.379-7.379,9.008,9.008,0,0,0,14-4.667ZM14-14Z" transform="translate(33 24.5)" fill="#fff"/>
  </g>
</svg>
