<svg xmlns="http://www.w3.org/2000/svg" width="62.57" height="50.855" viewBox="0 0 62.57 50.855">
  <g id="Graphique" transform="translate(-3.002 -2.863)">
    <path id="Tracé_105" data-name="Tracé 105" d="M4.043,53.245H15.6a1.136,1.136,0,0,0,.738-.262.836.836,0,0,0,.306-.633V27.191A.978.978,0,0,0,15.6,26.3H4.043A.978.978,0,0,0,3,27.191V52.352A.977.977,0,0,0,4.043,53.245ZM5.085,28.087h9.474v23.37H5.085Z" transform="translate(0.002 0.471)" fill="#f2664f"/>
    <path id="Tracé_106" data-name="Tracé 106" d="M19.16,17.3a.978.978,0,0,0-1.043.9v33.49a.836.836,0,0,0,.306.633,1.136,1.136,0,0,0,.738.262h11.56a1.136,1.136,0,0,0,.738-.262.836.836,0,0,0,.306-.633V18.2a.836.836,0,0,0-.3-.635,1.136,1.136,0,0,0-.739-.263ZM29.676,50.788H20.2v-31.7h9.474Z" transform="translate(1.194 1.137)" fill="#f2664f"/>
    <path id="Tracé_107" data-name="Tracé 107" d="M34.276,29.933a.977.977,0,0,0-1.042.894V52.621a.977.977,0,0,0,1.042.894h11.56a1.136,1.136,0,0,0,.738-.262.836.836,0,0,0,.306-.633V30.828a.836.836,0,0,0-.306-.633,1.136,1.136,0,0,0-.738-.262ZM44.794,51.726H35.319v-20h9.475Z" transform="translate(2.385 0.202)" fill="#f2664f"/>
    <path id="Tracé_108" data-name="Tracé 108" d="M60.953,23.618H49.393a.977.977,0,0,0-1.042.894V52.154a.977.977,0,0,0,1.042.894h11.56a1.136,1.136,0,0,0,.738-.262A.836.836,0,0,0,62,52.154V24.512a.836.836,0,0,0-.306-.633A1.136,1.136,0,0,0,60.953,23.618Zm-1.042,27.64H50.436V25.408h9.475Z" transform="translate(3.576 0.67)" fill="#f2664f"/>
    <path id="Tracé_109" data-name="Tracé 109" d="M8.572,22.265a2.966,2.966,0,0,0,3.776-3.8L24.373,8.452a2.875,2.875,0,0,0,2.607.155L39.494,22.036a2.982,2.982,0,1,0,5.619.936l11.4-6.117a2.947,2.947,0,0,0,1.159.639,2.981,2.981,0,1,0-2.158-2.472l-11.4,6.111a2.905,2.905,0,0,0-3.09-.509L28.508,7.188a3.074,3.074,0,0,0,.162-.353,2.982,2.982,0,1,0-5.623.006L11.02,16.858a3.08,3.08,0,0,0-.507-.231,2.981,2.981,0,0,0-1.942,5.638Z" transform="translate(0.283 0)" fill="#f2664f"/>
  </g>
</svg>
