<svg xmlns="http://www.w3.org/2000/svg" xmlns:xlink="http://www.w3.org/1999/xlink" width="21" height="21" viewBox="0 0 21 21">
  <defs>
    <clipPath id="clip-path">
      <rect id="Rectangle_172" data-name="Rectangle 172" width="21" height="21" transform="translate(39.75 606)" fill="rgba(0,0,0,0.4)"/>
    </clipPath>
  </defs>
  <g id="Horloge" transform="translate(-39.75 -606)" clip-path="url(#clip-path)">
    <g id="Icon_akar-clock" data-name="Icon akar-clock" transform="translate(37.327 603.577)">
      <g id="Tracé_114" data-name="Tracé 114" fill="none" stroke-linecap="round" stroke-linejoin="round">
        <path d="M22.846,12.923A9.923,9.923,0,1,1,12.923,3a9.923,9.923,0,0,1,9.923,9.923Z" stroke="none"/>
        <path d="M 12.9232177734375 21.34643745422363 C 17.56779861450195 21.34643745422363 21.34643745422363 17.56779861450195 21.34643745422363 12.9232177734375 C 21.34643745422363 8.278637886047363 17.56779861450195 4.499997615814209 12.9232177734375 4.499997615814209 C 8.278637886047363 4.499997615814209 4.499997615814209 8.278637886047363 4.499997615814209 12.9232177734375 C 4.499997615814209 17.56779861450195 8.278637886047363 21.34643745422363 12.9232177734375 21.34643745422363 M 12.9232177734375 22.84643745422363 C 7.442777633666992 22.84643745422363 2.999997854232788 18.40365791320801 2.999997854232788 12.9232177734375 C 2.999997854232788 7.442777633666992 7.442777633666992 2.999997854232788 12.9232177734375 2.999997854232788 C 18.40365791320801 2.999997854232788 22.84643745422363 7.442777633666992 22.84643745422363 12.9232177734375 C 22.84643745422363 18.40365791320801 18.40365791320801 22.84643745422363 12.9232177734375 22.84643745422363 Z" stroke="none" fill="rgba(0,0,0,0.4)"/>
      </g>
      <path id="Tracé_115" data-name="Tracé 115" d="M20.977,18.923l-2.4-2.4a1.985,1.985,0,0,1-.581-1.4V9" transform="translate(-5.077 -2.031)" fill="none" stroke="rgba(0,0,0,0.4)" stroke-linecap="round" stroke-linejoin="round" stroke-width="1.5"/>
    </g>
  </g>
</svg>
