<svg width="1071" height="490" viewBox="0 0 1071 490" fill="none" xmlns="http://www.w3.org/2000/svg">
<rect x="-6.10352e-05" y="405" width="1071" height="81" fill="#52CE86"/>
<path d="M300.924 210L305.209 157.857L385.209 62.5525V272.142V479.285H278.067V229.285L300.924 210Z" fill="white"/>
<path fill-rule="evenodd" clip-rule="evenodd" d="M188.067 237.856C188.067 242.7 187.302 247.365 185.886 251.736C200.333 264.052 209.495 282.384 209.495 302.856C209.495 310.767 208.127 318.359 205.614 325.408C216.97 339.313 223.781 357.075 223.781 376.428C223.781 421.005 187.644 457.142 143.067 457.142C98.4897 457.142 62.3527 421.005 62.3527 376.428C62.3527 357.638 68.7734 340.347 79.5404 326.631C76.7416 319.24 75.2096 311.227 75.2096 302.856C75.2096 281.853 84.8531 263.102 99.9537 250.791C98.7265 246.694 98.0672 242.352 98.0672 237.856C98.0672 213.003 118.214 192.856 143.067 192.856C167.92 192.856 188.067 213.003 188.067 237.856Z" fill="white"/>
<path d="M713.78 28.5715H876.637V490H713.78V28.5715Z" fill="white"/>
<path fill-rule="evenodd" clip-rule="evenodd" d="M868.065 37.143H722.351V481.428H868.065V37.143ZM713.78 28.5715V490H876.637V28.5715H713.78Z" fill="#1F2744"/>
<path d="M738.066 0H852.351V37.1428H738.066V0Z" fill="white"/>
<path fill-rule="evenodd" clip-rule="evenodd" d="M843.78 8.57142H746.637V28.5714H843.78V8.57142ZM738.066 0V37.1428H852.351V0H738.066Z" fill="#1F2744"/>
<path d="M626.637 130H722.351V490H626.637V130Z" fill="white"/>
<path fill-rule="evenodd" clip-rule="evenodd" d="M713.78 138.572H635.208V481.428H713.78V138.572ZM626.637 130V490H722.351V130H626.637Z" fill="#1F2744"/>
<path d="M868.066 262.857H963.78V489.999H868.066V262.857Z" fill="white"/>
<path fill-rule="evenodd" clip-rule="evenodd" d="M955.209 271.428H876.637V481.428H955.209V271.428ZM868.066 262.857V489.999H963.78V262.857H868.066Z" fill="#1F2744"/>
<path fill-rule="evenodd" clip-rule="evenodd" d="M815.923 107.202C816.155 107.164 816.394 107.143 816.637 107.143H839.494C841.861 107.143 843.78 109.062 843.78 111.429C843.78 113.796 841.861 115.715 839.494 115.715H816.637C816.394 115.715 816.155 115.694 815.923 115.655C815.691 115.694 815.452 115.715 815.209 115.715H796.637H792.351H773.78H750.923C748.556 115.715 746.637 113.796 746.637 111.429C746.637 109.062 748.556 107.143 750.923 107.143H773.78H792.351H796.637H815.209C815.452 107.143 815.691 107.164 815.923 107.202ZM815.923 81.4882C816.155 81.4492 816.394 81.429 816.637 81.429L839.494 81.429C841.861 81.429 843.78 83.3477 843.78 85.7147C843.78 88.0816 841.861 90.0004 839.494 90.0004L816.637 90.0004C816.394 90.0004 816.155 89.9801 815.923 89.9411C815.691 89.9801 815.452 90.0004 815.209 90.0004H796.637L792.351 90.0004L792.348 90.0004H773.78H773.777L750.923 90.0004C748.556 90.0004 746.637 88.0816 746.637 85.7147C746.637 83.3477 748.556 81.429 750.923 81.429H773.78H773.783H796.637H796.64H815.209C815.452 81.429 815.691 81.4492 815.923 81.4882Z" fill="#1F2744"/>
<path fill-rule="evenodd" clip-rule="evenodd" d="M918.065 308.571C915.698 308.571 913.78 310.49 913.78 312.857C913.78 315.224 915.698 317.142 918.065 317.142H940.923C943.289 317.142 945.208 315.224 945.208 312.857C945.208 310.49 943.289 308.571 940.923 308.571H918.065ZM918.065 291.428C915.698 291.428 913.78 293.347 913.78 295.714C913.78 298.081 915.698 300 918.065 300H940.923C943.289 300 945.208 298.081 945.208 295.714C945.208 293.347 943.289 291.428 940.923 291.428L918.065 291.428Z" fill="#1F2744"/>
<path fill-rule="evenodd" clip-rule="evenodd" d="M929.494 312.857C929.494 310.49 931.413 308.571 933.78 308.571L956.637 308.571C959.004 308.571 960.923 310.49 960.923 312.857C960.923 315.224 959.004 317.142 956.637 317.142L933.78 317.142C931.413 317.142 929.494 315.224 929.494 312.857Z" fill="#1F2744"/>
<path fill-rule="evenodd" clip-rule="evenodd" d="M929.494 295.714C929.494 293.347 931.413 291.428 933.78 291.428L956.637 291.428C959.004 291.428 960.923 293.347 960.923 295.714C960.923 298.081 959.004 300 956.637 300L933.78 300C931.413 300 929.494 298.081 929.494 295.714Z" fill="#1F2744"/>
<path fill-rule="evenodd" clip-rule="evenodd" d="M918.065 342.857C915.698 342.857 913.78 344.776 913.78 347.143C913.78 349.51 915.698 351.428 918.065 351.428H940.923C943.289 351.428 945.208 349.51 945.208 347.143C945.208 344.776 943.289 342.857 940.923 342.857H918.065ZM918.065 325.714C915.698 325.714 913.78 327.633 913.78 330C913.78 332.367 915.698 334.286 918.065 334.286H940.923C943.289 334.286 945.208 332.367 945.208 330C945.208 327.633 943.289 325.714 940.923 325.714L918.065 325.714Z" fill="#1F2744"/>
<path fill-rule="evenodd" clip-rule="evenodd" d="M929.494 347.142C929.494 344.775 931.413 342.856 933.78 342.856L956.637 342.856C959.004 342.856 960.923 344.775 960.923 347.142C960.923 349.509 959.004 351.428 956.637 351.428L933.78 351.428C931.413 351.428 929.494 349.509 929.494 347.142Z" fill="#1F2744"/>
<path fill-rule="evenodd" clip-rule="evenodd" d="M929.494 330C929.494 327.633 931.413 325.714 933.78 325.714L956.637 325.714C959.004 325.714 960.923 327.633 960.923 330C960.923 332.367 959.004 334.286 956.637 334.286L933.78 334.286C931.413 334.286 929.494 332.367 929.494 330Z" fill="#1F2744"/>
<path fill-rule="evenodd" clip-rule="evenodd" d="M918.065 377.142C915.698 377.142 913.78 379.061 913.78 381.428C913.78 383.795 915.698 385.714 918.065 385.714H940.923C943.289 385.714 945.208 383.795 945.208 381.428C945.208 379.061 943.289 377.142 940.923 377.142H918.065ZM918.065 360C915.698 360 913.78 361.918 913.78 364.285C913.78 366.652 915.698 368.571 918.065 368.571H940.923C943.289 368.571 945.208 366.652 945.208 364.285C945.208 361.918 943.289 360 940.923 360L918.065 360Z" fill="#1F2744"/>
<path fill-rule="evenodd" clip-rule="evenodd" d="M929.494 381.428C929.494 379.061 931.413 377.142 933.78 377.142L956.637 377.142C959.004 377.142 960.923 379.061 960.923 381.428C960.923 383.795 959.004 385.714 956.637 385.714L933.78 385.714C931.413 385.714 929.494 383.795 929.494 381.428Z" fill="#1F2744"/>
<path fill-rule="evenodd" clip-rule="evenodd" d="M929.494 364.285C929.494 361.918 931.413 360 933.78 360L956.637 360C959.004 360 960.923 361.918 960.923 364.285C960.923 366.652 959.004 368.571 956.637 368.571L933.78 368.571C931.413 368.571 929.494 366.652 929.494 364.285Z" fill="#1F2744"/>
<path fill-rule="evenodd" clip-rule="evenodd" d="M918.065 411.428C915.698 411.428 913.78 413.347 913.78 415.714C913.78 418.081 915.698 420 918.065 420H940.923C943.289 420 945.208 418.081 945.208 415.714C945.208 413.347 943.289 411.428 940.923 411.428H918.065ZM918.065 394.285C915.698 394.285 913.78 396.204 913.78 398.571C913.78 400.938 915.698 402.857 918.065 402.857H940.923C943.289 402.857 945.208 400.938 945.208 398.571C945.208 396.204 943.289 394.285 940.923 394.285L918.065 394.285Z" fill="#1F2744"/>
<path fill-rule="evenodd" clip-rule="evenodd" d="M929.494 415.714C929.494 413.347 931.413 411.428 933.78 411.428L956.637 411.428C959.004 411.428 960.923 413.347 960.923 415.714C960.923 418.081 959.004 420 956.637 420L933.78 420C931.413 420 929.494 418.081 929.494 415.714Z" fill="#1F2744"/>
<path fill-rule="evenodd" clip-rule="evenodd" d="M929.494 398.571C929.494 396.204 931.413 394.285 933.78 394.285L956.637 394.285C959.004 394.285 960.923 396.204 960.923 398.571C960.923 400.938 959.004 402.857 956.637 402.857L933.78 402.857C931.413 402.857 929.494 400.938 929.494 398.571Z" fill="#1F2744"/>
<path fill-rule="evenodd" clip-rule="evenodd" d="M918.065 445.714C915.698 445.714 913.78 447.633 913.78 450C913.78 452.367 915.698 454.286 918.065 454.286H940.923C943.289 454.286 945.208 452.367 945.208 450C945.208 447.633 943.289 445.714 940.923 445.714H918.065ZM918.065 428.571C915.698 428.571 913.78 430.49 913.78 432.857C913.78 435.224 915.698 437.143 918.065 437.143H940.923C943.289 437.143 945.208 435.224 945.208 432.857C945.208 430.49 943.289 428.571 940.923 428.571L918.065 428.571Z" fill="#1F2744"/>
<path fill-rule="evenodd" clip-rule="evenodd" d="M929.494 449.999C929.494 447.632 931.413 445.713 933.78 445.713L956.637 445.713C959.004 445.713 960.923 447.632 960.923 449.999C960.923 452.366 959.004 454.285 956.637 454.285L933.78 454.285C931.413 454.285 929.494 452.366 929.494 449.999Z" fill="#1F2744"/>
<path fill-rule="evenodd" clip-rule="evenodd" d="M929.494 432.857C929.494 430.49 931.413 428.571 933.78 428.571L956.637 428.571C959.004 428.571 960.923 430.49 960.923 432.857C960.923 435.224 959.004 437.143 956.637 437.143L933.78 437.143C931.413 437.143 929.494 435.224 929.494 432.857Z" fill="#1F2744"/>
<path fill-rule="evenodd" clip-rule="evenodd" d="M815.923 158.63C816.155 158.591 816.394 158.571 816.637 158.571H839.494C841.861 158.571 843.78 160.489 843.78 162.856C843.78 165.223 841.861 167.142 839.494 167.142H816.637C816.394 167.142 816.155 167.122 815.923 167.083C815.691 167.122 815.452 167.142 815.209 167.142H796.637H792.351H773.78H750.923C748.556 167.142 746.637 165.223 746.637 162.856C746.637 160.489 748.556 158.571 750.923 158.571H773.78H792.351H796.637H815.209C815.452 158.571 815.691 158.591 815.923 158.63ZM815.923 132.916C816.155 132.877 816.394 132.856 816.637 132.856L839.494 132.856C841.861 132.856 843.78 134.775 843.78 137.142C843.78 139.509 841.861 141.428 839.494 141.428L816.637 141.428C816.394 141.428 816.155 141.408 815.923 141.369C815.691 141.408 815.452 141.428 815.209 141.428H796.637L792.351 141.428L792.348 141.428H773.78H773.777L750.923 141.428C748.556 141.428 746.637 139.509 746.637 137.142C746.637 134.775 748.556 132.856 750.923 132.856H773.78H773.783H796.637H796.64H815.209C815.452 132.856 815.691 132.877 815.923 132.916Z" fill="#1F2744"/>
<path d="M539.495 192.856H635.209V489.999H539.495V192.856Z" fill="white"/>
<path fill-rule="evenodd" clip-rule="evenodd" d="M626.638 201.428H548.066V481.427H626.638V201.428ZM539.495 192.856V489.999H635.209V192.856H539.495Z" fill="#1F2744"/>
<path fill-rule="evenodd" clip-rule="evenodd" d="M596.637 244.286C596.637 246.653 598.556 248.571 600.923 248.571C603.29 248.571 605.209 246.653 605.209 244.286L605.209 221.428C605.209 219.062 603.29 217.143 600.923 217.143C598.556 217.143 596.637 219.062 596.637 221.428L596.637 244.286ZM570.923 244.286C570.923 246.653 572.842 248.571 575.209 248.571C577.575 248.571 579.494 246.653 579.494 244.286L579.494 221.428C579.494 219.062 577.575 217.143 575.209 217.143C572.842 217.143 570.923 219.062 570.923 221.428L570.923 244.286Z" fill="#1F2744"/>
<path fill-rule="evenodd" clip-rule="evenodd" d="M596.637 294.286C596.637 296.653 598.556 298.571 600.923 298.571C603.29 298.571 605.209 296.653 605.209 294.286L605.209 271.428C605.209 269.062 603.29 267.143 600.923 267.143C598.556 267.143 596.637 269.062 596.637 271.428L596.637 294.286ZM570.923 294.286C570.923 296.653 572.842 298.571 575.209 298.571C577.575 298.571 579.494 296.653 579.494 294.286L579.494 271.428C579.494 269.062 577.575 267.143 575.209 267.143C572.842 267.143 570.923 269.062 570.923 271.428L570.923 294.286Z" fill="#1F2744"/>
<path fill-rule="evenodd" clip-rule="evenodd" d="M596.637 344.285C596.637 346.652 598.556 348.571 600.923 348.571C603.29 348.571 605.209 346.652 605.209 344.285L605.209 321.428C605.209 319.061 603.29 317.143 600.923 317.143C598.556 317.143 596.637 319.061 596.637 321.428L596.637 344.285ZM570.923 344.285C570.923 346.652 572.842 348.571 575.209 348.571C577.575 348.571 579.494 346.652 579.494 344.285L579.494 321.428C579.494 319.061 577.575 317.143 575.209 317.143C572.842 317.143 570.923 319.061 570.923 321.428L570.923 344.285Z" fill="#1F2744"/>
<path fill-rule="evenodd" clip-rule="evenodd" d="M596.637 394.285C596.637 396.652 598.556 398.571 600.923 398.571C603.29 398.571 605.209 396.652 605.209 394.285L605.209 371.428C605.209 369.061 603.29 367.142 600.923 367.142C598.556 367.142 596.637 369.061 596.637 371.428L596.637 394.285ZM570.923 394.285C570.923 396.652 572.842 398.571 575.209 398.571C577.575 398.571 579.494 396.652 579.494 394.285L579.494 371.428C579.494 369.061 577.575 367.142 575.209 367.142C572.842 367.142 570.923 369.061 570.923 371.428L570.923 394.285Z" fill="#1F2744"/>
<path fill-rule="evenodd" clip-rule="evenodd" d="M596.637 444.285C596.637 446.652 598.556 448.571 600.923 448.571C603.29 448.571 605.209 446.652 605.209 444.285L605.209 421.428C605.209 419.061 603.29 417.142 600.923 417.142C598.556 417.142 596.637 419.061 596.637 421.428L596.637 444.285ZM570.923 444.285C570.923 446.652 572.842 448.571 575.209 448.571C577.575 448.571 579.494 446.652 579.494 444.285L579.494 421.428C579.494 419.061 577.575 417.142 575.209 417.142C572.842 417.142 570.923 419.061 570.923 421.428L570.923 444.285Z" fill="#1F2744"/>
<path fill-rule="evenodd" clip-rule="evenodd" d="M815.923 261.487C816.155 261.448 816.394 261.428 816.637 261.428H839.494C841.861 261.428 843.78 263.347 843.78 265.714C843.78 268.081 841.861 270 839.494 270H816.637C816.394 270 816.155 269.979 815.923 269.94C815.691 269.979 815.452 270 815.209 270H796.637H792.351H773.78H750.923C748.556 270 746.637 268.081 746.637 265.714C746.637 263.347 748.556 261.428 750.923 261.428H773.78H792.351H796.637H815.209C815.452 261.428 815.691 261.448 815.923 261.487ZM815.923 235.773C816.155 235.734 816.394 235.714 816.637 235.714L839.494 235.714C841.861 235.714 843.78 237.633 843.78 240C843.78 242.367 841.861 244.285 839.494 244.285L816.637 244.285C816.394 244.285 816.155 244.265 815.923 244.226C815.691 244.265 815.452 244.285 815.209 244.285H796.637L792.351 244.285L792.348 244.285H773.78H773.777L750.923 244.285C748.556 244.285 746.637 242.367 746.637 240C746.637 237.633 748.556 235.714 750.923 235.714H773.78H773.783H796.637H796.64H815.209C815.452 235.714 815.691 235.734 815.923 235.773Z" fill="#1F2744"/>
<path fill-rule="evenodd" clip-rule="evenodd" d="M815.923 210.059C816.155 210.02 816.394 210 816.637 210H839.494C841.861 210 843.78 211.918 843.78 214.285C843.78 216.652 841.861 218.571 839.494 218.571H816.637C816.394 218.571 816.155 218.551 815.923 218.512C815.691 218.551 815.452 218.571 815.209 218.571H796.637H792.351H773.78H750.923C748.556 218.571 746.637 216.652 746.637 214.285C746.637 211.918 748.556 210 750.923 210H773.78H792.351H796.637H815.209C815.452 210 815.691 210.02 815.923 210.059ZM815.923 184.345C816.155 184.306 816.394 184.285 816.637 184.285L839.494 184.285C841.861 184.285 843.78 186.204 843.78 188.571C843.78 190.938 841.861 192.857 839.494 192.857L816.637 192.857C816.394 192.857 816.155 192.837 815.923 192.798C815.691 192.837 815.452 192.857 815.209 192.857H796.637L792.351 192.857L792.348 192.857H773.78H773.777L750.923 192.857C748.556 192.857 746.637 190.938 746.637 188.571C746.637 186.204 748.556 184.285 750.923 184.285H773.78H773.783H796.637H796.64H815.209C815.452 184.285 815.691 184.306 815.923 184.345Z" fill="#1F2744"/>
<path fill-rule="evenodd" clip-rule="evenodd" d="M815.923 312.916C816.155 312.877 816.394 312.857 816.637 312.857H839.494C841.861 312.857 843.78 314.776 843.78 317.143C843.78 319.51 841.861 321.429 839.494 321.429H816.637C816.394 321.429 816.155 321.408 815.923 321.369C815.691 321.408 815.452 321.429 815.209 321.429H796.637H792.351H773.78H750.923C748.556 321.429 746.637 319.51 746.637 317.143C746.637 314.776 748.556 312.857 750.923 312.857H773.78H792.351H796.637H815.209C815.452 312.857 815.691 312.877 815.923 312.916ZM815.923 287.202C816.155 287.163 816.394 287.143 816.637 287.143L839.494 287.143C841.861 287.143 843.78 289.062 843.78 291.429C843.78 293.795 841.861 295.714 839.494 295.714L816.637 295.714C816.394 295.714 816.155 295.694 815.923 295.655C815.691 295.694 815.452 295.714 815.209 295.714H796.637L792.351 295.714L792.348 295.714H773.78H773.777L750.923 295.714C748.556 295.714 746.637 293.795 746.637 291.429C746.637 289.062 748.556 287.143 750.923 287.143H773.78H773.783H796.637H796.64H815.209C815.452 287.143 815.691 287.163 815.923 287.202Z" fill="#1F2744"/>
<path fill-rule="evenodd" clip-rule="evenodd" d="M815.923 364.344C816.155 364.305 816.394 364.285 816.637 364.285H839.494C841.861 364.285 843.78 366.203 843.78 368.57C843.78 370.937 841.861 372.856 839.494 372.856H816.637C816.394 372.856 816.155 372.836 815.923 372.797C815.691 372.836 815.452 372.856 815.209 372.856H796.637H792.351H773.78H750.923C748.556 372.856 746.637 370.937 746.637 368.57C746.637 366.203 748.556 364.285 750.923 364.285H773.78H792.351H796.637H815.209C815.452 364.285 815.691 364.305 815.923 364.344ZM815.923 338.63C816.155 338.591 816.394 338.57 816.637 338.57L839.494 338.57C841.861 338.57 843.78 340.489 843.78 342.856C843.78 345.223 841.861 347.142 839.494 347.142L816.637 347.142C816.394 347.142 816.155 347.121 815.923 347.082C815.691 347.121 815.452 347.142 815.209 347.142H796.637L792.351 347.142L792.348 347.142H773.78H773.777L750.923 347.142C748.556 347.142 746.637 345.223 746.637 342.856C746.637 340.489 748.556 338.57 750.923 338.57H773.78H773.783H796.637H796.64H815.209C815.452 338.57 815.691 338.591 815.923 338.63Z" fill="#1F2744"/>
<path fill-rule="evenodd" clip-rule="evenodd" d="M648.066 215.714V197.143V174.286C648.066 171.919 649.985 170 652.352 170C654.719 170 656.637 171.919 656.637 174.286L656.637 197.143L656.637 215.712L656.637 215.714V227.136L656.637 227.143L656.637 250C656.637 250.002 656.637 250.003 656.637 250.005V255.714L656.637 274.283L656.637 274.286V285.707L656.637 285.714L656.637 308.571C656.637 310.938 654.719 312.857 652.352 312.857C649.985 312.857 648.066 310.938 648.066 308.571L648.066 297.15L648.066 297.143V278.574V278.571V274.286V255.714V238.571V232.857V220.002V220V215.714Z" fill="#1F2744"/>
<path fill-rule="evenodd" clip-rule="evenodd" d="M648.066 307.143V288.572V265.715C648.066 263.348 649.985 261.429 652.352 261.429C654.719 261.429 656.637 263.348 656.637 265.715L656.637 288.572L656.637 307.141L656.637 307.143V318.565L656.637 318.572L656.637 341.429C656.637 341.431 656.637 341.432 656.637 341.434V347.143L656.637 365.712L656.637 365.715V377.136L656.637 377.143L656.637 400C656.637 402.367 654.719 404.286 652.352 404.286C649.985 404.286 648.066 402.367 648.066 400L648.066 388.579L648.066 388.572V370.003V370V365.715V347.143V330V324.286V311.431V311.429V307.143Z" fill="#1F2744"/>
<path fill-rule="evenodd" clip-rule="evenodd" d="M669.494 215.714V197.143V174.286C669.494 171.919 671.413 170 673.78 170C676.147 170 678.066 171.919 678.066 174.286L678.066 197.143L678.066 215.712L678.066 215.714V227.136L678.066 227.143L678.066 250C678.066 250.002 678.066 250.003 678.066 250.005V255.714L678.066 274.283L678.066 274.286V285.707L678.066 285.714L678.066 308.571C678.066 310.938 676.147 312.857 673.78 312.857C671.413 312.857 669.494 310.938 669.494 308.571L669.494 297.15L669.494 297.143V278.574V278.571V274.286V255.714V238.571V232.857V220.002V220V215.714Z" fill="#1F2744"/>
<path fill-rule="evenodd" clip-rule="evenodd" d="M669.494 307.143V288.572V265.715C669.494 263.348 671.413 261.429 673.78 261.429C676.147 261.429 678.066 263.348 678.066 265.715L678.066 288.572L678.066 307.141L678.066 307.143V318.565L678.066 318.572L678.066 341.429C678.066 341.431 678.066 341.432 678.066 341.434V347.143L678.066 365.712L678.066 365.715V377.136L678.066 377.143L678.066 400C678.066 402.367 676.147 404.286 673.78 404.286C671.413 404.286 669.494 402.367 669.494 400L669.494 388.579L669.494 388.572V370.003V370V365.715V347.143V330V324.286V311.431V311.429V307.143Z" fill="#1F2744"/>
<path fill-rule="evenodd" clip-rule="evenodd" d="M690.923 215.714V197.143V174.286C690.923 171.919 692.842 170 695.209 170C697.576 170 699.495 171.919 699.495 174.286L699.495 197.143L699.495 215.712L699.495 215.714V227.136L699.495 227.143L699.495 250C699.495 250.002 699.495 250.003 699.495 250.005V255.714L699.495 274.283L699.495 274.286V285.707L699.495 285.714L699.495 308.571C699.495 310.938 697.576 312.857 695.209 312.857C692.842 312.857 690.923 310.938 690.923 308.571L690.923 297.15L690.923 297.143V278.574V278.571V274.286V255.714V238.571V232.857V220.002V220V215.714Z" fill="#1F2744"/>
<path fill-rule="evenodd" clip-rule="evenodd" d="M690.923 307.143V288.572V265.715C690.923 263.348 692.842 261.429 695.209 261.429C697.576 261.429 699.495 263.348 699.495 265.715L699.495 288.572L699.495 307.141L699.495 307.143V318.565L699.495 318.572L699.495 341.429C699.495 341.431 699.495 341.432 699.495 341.434V347.143L699.495 365.712L699.495 365.715V377.136L699.495 377.143L699.495 400C699.495 402.367 697.576 404.286 695.209 404.286C692.842 404.286 690.923 402.367 690.923 400L690.923 388.579L690.923 388.572V370.003V370V365.715V347.143V330V324.286V311.431V311.429V307.143Z" fill="#1F2744"/>
<path fill-rule="evenodd" clip-rule="evenodd" d="M648.066 367.142V348.57V325.713C648.066 323.346 649.985 321.427 652.352 321.427C654.719 321.427 656.637 323.346 656.637 325.713L656.637 348.57L656.637 367.139L656.637 367.142V378.563L656.637 378.57L656.637 401.427C656.637 401.429 656.637 401.431 656.637 401.433V407.142L656.637 425.711L656.637 425.713V437.135L656.637 437.142L656.637 459.999C656.637 462.366 654.719 464.284 652.352 464.284C649.985 464.284 648.066 462.366 648.066 459.999L648.066 448.577L648.066 448.57V430.001V429.999V425.713V407.142V389.999V384.285V371.43V371.427V367.142Z" fill="#1F2744"/>
<path fill-rule="evenodd" clip-rule="evenodd" d="M669.494 367.142V348.57V325.713C669.494 323.346 671.413 321.427 673.78 321.427C676.147 321.427 678.066 323.346 678.066 325.713L678.066 348.57L678.066 367.139L678.066 367.142V378.563L678.066 378.57L678.066 401.427C678.066 401.429 678.066 401.431 678.066 401.433V407.142L678.066 425.711L678.066 425.713V437.135L678.066 437.142L678.066 459.999C678.066 462.366 676.147 464.284 673.78 464.284C671.413 464.284 669.494 462.366 669.494 459.999L669.494 448.577L669.494 448.57V430.001V429.999V425.713V407.142V389.999V384.285V371.43V371.427V367.142Z" fill="#1F2744"/>
<path fill-rule="evenodd" clip-rule="evenodd" d="M690.923 367.142V348.57V325.713C690.923 323.346 692.842 321.427 695.209 321.427C697.576 321.427 699.495 323.346 699.495 325.713L699.495 348.57L699.495 367.139L699.495 367.142V378.563L699.495 378.57L699.495 401.427C699.495 401.429 699.495 401.431 699.495 401.433V407.142L699.495 425.711L699.495 425.713V437.135L699.495 437.142L699.495 459.999C699.495 462.366 697.576 464.284 695.209 464.284C692.842 464.284 690.923 462.366 690.923 459.999L690.923 448.577L690.923 448.57V430.001V429.999V425.713V407.142V389.999V384.285V371.43V371.427V367.142Z" fill="#1F2744"/>
<path fill-rule="evenodd" clip-rule="evenodd" d="M815.923 415.774C816.155 415.735 816.394 415.714 816.637 415.714H839.494C841.861 415.714 843.78 417.633 843.78 420C843.78 422.367 841.861 424.286 839.494 424.286H816.637C816.394 424.286 816.155 424.265 815.923 424.226C815.691 424.265 815.452 424.286 815.209 424.286H796.637H792.351H773.78H750.923C748.556 424.286 746.637 422.367 746.637 420C746.637 417.633 748.556 415.714 750.923 415.714H773.78H792.351H796.637H815.209C815.452 415.714 815.691 415.735 815.923 415.774ZM815.923 390.059C816.155 390.02 816.394 390 816.637 390L839.494 390C841.861 390 843.78 391.919 843.78 394.286C843.78 396.653 841.861 398.571 839.494 398.571L816.637 398.571C816.394 398.571 816.155 398.551 815.923 398.512C815.691 398.551 815.452 398.571 815.209 398.571H796.637L792.351 398.571L792.348 398.571H773.78H773.777L750.923 398.571C748.556 398.571 746.637 396.653 746.637 394.286C746.637 391.919 748.556 390 750.923 390H773.78H773.783H796.637H796.64H815.209C815.452 390 815.691 390.02 815.923 390.059Z" fill="#1F2744"/>
<path fill-rule="evenodd" clip-rule="evenodd" d="M392.352 39.1653V488.571H269.495V231.746L291.78 211.536L295.662 160.607L392.352 39.1653ZM304.009 163.885L300.067 215.592L278.066 235.544V480H383.781V63.692L304.009 163.885Z" fill="#1F2744"/>
<path fill-rule="evenodd" clip-rule="evenodd" d="M368.067 120C370.433 120 372.352 121.919 372.352 124.286L372.352 141.426L372.352 141.429L372.352 147.143V164.282V164.286V185.711L372.352 185.714L372.352 187.143V202.854L372.352 202.857L372.352 208.572V225.711V225.714V242.854C372.352 242.855 372.352 242.856 372.352 242.857L372.352 248.572V265.714C372.352 268.081 370.433 270 368.067 270C365.7 270 363.781 268.081 363.781 265.714V248.572V242.857V225.714V208.572V202.857V187.143V185.714V164.286V147.143V141.429V124.286C363.781 121.919 365.7 120 368.067 120Z" fill="#1F2744"/>
<path fill-rule="evenodd" clip-rule="evenodd" d="M349.495 141.429C351.862 141.429 353.781 143.347 353.781 145.714L353.781 162.854L353.781 162.857L353.781 168.572V185.711V185.714V207.139L353.781 207.143L353.781 208.572V224.282L353.781 224.286L353.781 230V247.139V247.143V264.282C353.781 264.283 353.781 264.285 353.781 264.286L353.781 270V287.143C353.781 289.51 351.862 291.429 349.495 291.429C347.128 291.429 345.209 289.51 345.209 287.143V270V264.286V247.143V230V224.286V208.572V207.143V185.714V168.572V162.857V145.714C345.209 143.347 347.128 141.429 349.495 141.429Z" fill="#1F2744"/>
<path fill-rule="evenodd" clip-rule="evenodd" d="M330.923 158.572C333.29 158.572 335.209 160.491 335.209 162.857L335.209 179.997L335.209 180L335.209 185.715V202.854V202.857V224.283L335.209 224.286L335.209 225.715V241.425L335.209 241.429L335.209 247.143V264.283V264.286V281.425C335.209 281.427 335.209 281.428 335.209 281.429L335.209 287.143V304.286C335.209 306.653 333.29 308.572 330.923 308.572C328.556 308.572 326.637 306.653 326.637 304.286V287.143V281.429V264.286V247.143V241.429V225.715V224.286V202.857V185.715V180V162.857C326.637 160.491 328.556 158.572 330.923 158.572Z" fill="#1F2744"/>
<path fill-rule="evenodd" clip-rule="evenodd" d="M368.066 254.286C370.433 254.286 372.352 256.205 372.352 258.572L372.352 281.429C372.352 283.796 370.433 285.714 368.066 285.714C365.699 285.714 363.78 283.796 363.78 281.429L363.78 258.572C363.78 256.205 365.699 254.286 368.066 254.286Z" fill="#1F2744"/>
<path fill-rule="evenodd" clip-rule="evenodd" d="M368.066 272.857C370.433 272.857 372.352 274.776 372.352 277.143L372.352 300C372.352 302.367 370.433 304.286 368.066 304.286C365.699 304.286 363.78 302.367 363.78 300L363.78 277.143C363.78 274.776 365.699 272.857 368.066 272.857Z" fill="#1F2744"/>
<path fill-rule="evenodd" clip-rule="evenodd" d="M349.495 272.857C351.862 272.857 353.781 274.776 353.781 277.143L353.781 300C353.781 302.367 351.862 304.286 349.495 304.286C347.128 304.286 345.209 302.367 345.209 300L345.209 277.143C345.209 274.776 347.128 272.857 349.495 272.857Z" fill="#1F2744"/>
<path fill-rule="evenodd" clip-rule="evenodd" d="M330.923 294.286C333.29 294.286 335.209 296.204 335.209 298.571L335.209 321.428C335.209 323.795 333.29 325.714 330.923 325.714C328.556 325.714 326.637 323.795 326.637 321.428L326.637 298.571C326.637 296.204 328.556 294.286 330.923 294.286Z" fill="#1F2744"/>
<path fill-rule="evenodd" clip-rule="evenodd" d="M312.352 294.286C314.719 294.286 316.638 296.204 316.638 298.571L316.638 321.428C316.638 323.795 314.719 325.714 312.352 325.714C309.985 325.714 308.067 323.795 308.067 321.428L308.067 298.571C308.067 296.204 309.985 294.286 312.352 294.286Z" fill="#1F2744"/>
<path fill-rule="evenodd" clip-rule="evenodd" d="M308.067 184.286C308.067 181.919 309.985 180 312.352 180C314.719 180 316.638 181.919 316.638 184.286V201.429V207.143V224.286V245.714V247.143V262.857V268.571V285.714V308.571C316.638 310.938 314.719 312.857 312.352 312.857C309.985 312.857 308.067 310.938 308.067 308.571V285.714C308.067 285.713 308.067 285.712 308.067 285.711V268.571L308.067 262.857L308.067 262.854V247.143L308.067 245.714L308.067 245.711V224.286V224.282V207.143L308.067 201.429L308.067 201.426L308.067 184.286Z" fill="#1F2744"/>
<path fill-rule="evenodd" clip-rule="evenodd" d="M288.066 237.143C288.066 234.776 289.985 232.857 292.352 232.857C294.719 232.857 296.637 234.776 296.637 237.143V254.286V260V277.143V298.572V300V321.429C296.637 323.796 294.719 325.714 292.352 325.714C289.985 325.714 288.066 323.796 288.066 321.429V300L288.066 298.572C288.066 298.57 288.066 298.569 288.066 298.568V277.143V277.14V260L288.066 254.286L288.066 254.283L288.066 237.143Z" fill="#1F2744"/>
<path fill-rule="evenodd" clip-rule="evenodd" d="M288.066 378.571C288.066 376.204 289.985 374.285 292.352 374.285C294.719 374.285 296.637 376.204 296.637 378.571V395.713V401.428V418.571V439.999V441.428V462.856C296.637 465.223 294.719 467.142 292.352 467.142C289.985 467.142 288.066 465.223 288.066 462.856V441.428L288.066 439.999C288.066 439.998 288.066 439.997 288.066 439.996V418.571V418.567V401.428L288.066 395.713L288.066 395.71L288.066 378.571Z" fill="#1F2744"/>
<path fill-rule="evenodd" clip-rule="evenodd" d="M288.066 299.999C288.066 297.632 289.985 295.714 292.352 295.714C294.719 295.714 296.637 297.632 296.637 299.999V317.142V322.856V339.999V361.428V362.856V384.285C296.637 386.652 294.719 388.571 292.352 388.571C289.985 388.571 288.066 386.652 288.066 384.285V362.856L288.066 361.428C288.066 361.427 288.066 361.426 288.066 361.424V339.999V339.996V322.856L288.066 317.142L288.066 317.139L288.066 299.999Z" fill="#1F2744"/>
<path d="M359.495 315.714H532.352V330H359.495V315.714Z" fill="white"/>
<path d="M312.352 338.57H576.637V481.427H312.352V338.57Z" fill="white"/>
<path fill-rule="evenodd" clip-rule="evenodd" d="M576.637 338.571H313.78V481.428H576.637V338.571ZM305.209 330V489.999H585.209V330H305.209Z" fill="#1F2744"/>
<path fill-rule="evenodd" clip-rule="evenodd" d="M528.066 317.142H360.923V330H528.066V317.142ZM352.352 308.571V338.571H536.637V308.571H352.352Z" fill="#1F2744"/>
<path fill-rule="evenodd" clip-rule="evenodd" d="M360.924 370C363.291 370 365.209 371.918 365.209 374.285L365.209 397.142C365.209 399.509 363.291 401.428 360.924 401.428C358.557 401.428 356.638 399.509 356.638 397.142L356.638 374.285C356.638 371.918 358.557 370 360.924 370Z" fill="#1F2744"/>
<path fill-rule="evenodd" clip-rule="evenodd" d="M360.924 417.142C363.291 417.142 365.209 419.06 365.209 421.427L365.209 444.284C365.209 446.651 363.291 448.57 360.924 448.57C358.557 448.57 356.638 446.651 356.638 444.284L356.638 421.427C356.638 419.06 358.557 417.142 360.924 417.142Z" fill="#1F2744"/>
<path fill-rule="evenodd" clip-rule="evenodd" d="M392.352 370C394.719 370 396.638 371.918 396.638 374.285L396.638 397.142C396.638 399.509 394.719 401.428 392.352 401.428C389.985 401.428 388.066 399.509 388.066 397.142L388.066 374.285C388.066 371.918 389.985 370 392.352 370Z" fill="#1F2744"/>
<path fill-rule="evenodd" clip-rule="evenodd" d="M392.352 417.142C394.719 417.142 396.638 419.06 396.638 421.427L396.638 444.284C396.638 446.651 394.719 448.57 392.352 448.57C389.985 448.57 388.066 446.651 388.066 444.284L388.066 421.427C388.066 419.06 389.985 417.142 392.352 417.142Z" fill="#1F2744"/>
<path fill-rule="evenodd" clip-rule="evenodd" d="M423.781 370C426.148 370 428.067 371.918 428.067 374.285L428.067 397.142C428.067 399.509 426.148 401.428 423.781 401.428C421.414 401.428 419.495 399.509 419.495 397.142L419.495 374.285C419.495 371.918 421.414 370 423.781 370Z" fill="#1F2744"/>
<path fill-rule="evenodd" clip-rule="evenodd" d="M423.781 417.142C426.148 417.142 428.067 419.06 428.067 421.427L428.067 444.284C428.067 446.651 426.148 448.57 423.781 448.57C421.414 448.57 419.495 446.651 419.495 444.284L419.495 421.427C419.495 419.06 421.414 417.142 423.781 417.142Z" fill="#1F2744"/>
<path fill-rule="evenodd" clip-rule="evenodd" d="M455.209 370C457.576 370 459.494 371.918 459.494 374.285L459.494 397.142C459.494 399.509 457.576 401.428 455.209 401.428C452.842 401.428 450.923 399.509 450.923 397.142L450.923 374.285C450.923 371.918 452.842 370 455.209 370Z" fill="#1F2744"/>
<path fill-rule="evenodd" clip-rule="evenodd" d="M455.209 417.142C457.576 417.142 459.494 419.06 459.494 421.427L459.494 444.284C459.494 446.651 457.576 448.57 455.209 448.57C452.842 448.57 450.923 446.651 450.923 444.284L450.923 421.427C450.923 419.06 452.842 417.142 455.209 417.142Z" fill="#1F2744"/>
<path fill-rule="evenodd" clip-rule="evenodd" d="M486.638 370C489.005 370 490.923 371.918 490.923 374.285L490.923 397.142C490.923 399.509 489.005 401.428 486.638 401.428C484.271 401.428 482.352 399.509 482.352 397.142L482.352 374.285C482.352 371.918 484.271 370 486.638 370Z" fill="#1F2744"/>
<path fill-rule="evenodd" clip-rule="evenodd" d="M486.638 417.142C489.005 417.142 490.923 419.06 490.923 421.427L490.923 444.284C490.923 446.651 489.005 448.57 486.638 448.57C484.271 448.57 482.352 446.651 482.352 444.284L482.352 421.427C482.352 419.06 484.271 417.142 486.638 417.142Z" fill="#1F2744"/>
<path fill-rule="evenodd" clip-rule="evenodd" d="M518.066 370C520.433 370 522.352 371.918 522.352 374.285L522.352 397.142C522.352 399.509 520.433 401.428 518.066 401.428C515.699 401.428 513.78 399.509 513.78 397.142L513.78 374.285C513.78 371.918 515.699 370 518.066 370Z" fill="#1F2744"/>
<path fill-rule="evenodd" clip-rule="evenodd" d="M518.066 417.142C520.433 417.142 522.352 419.06 522.352 421.427L522.352 444.284C522.352 446.651 520.433 448.57 518.066 448.57C515.699 448.57 513.78 446.651 513.78 444.284L513.78 421.427C513.78 419.06 515.699 417.142 518.066 417.142Z" fill="#1F2744"/>
<path d="M556.638 419.285C556.638 399.955 572.308 384.285 591.638 384.285H595.923C615.253 384.285 630.923 399.955 630.923 419.285V423.57C630.923 442.9 615.253 458.57 595.923 458.57H591.638C572.308 458.57 556.638 442.9 556.638 423.57V419.285Z" fill="white"/>
<path fill-rule="evenodd" clip-rule="evenodd" d="M589.495 458.398L589.495 407.142C589.495 404.775 591.414 402.857 593.781 402.857C596.147 402.857 598.066 404.775 598.066 407.142V438.571L606.464 430.173C608.138 428.499 610.852 428.499 612.525 430.173C614.199 431.846 614.199 434.56 612.525 436.234L598.586 450.173C598.422 450.337 598.248 450.485 598.066 450.617V458.231C615.819 455.794 629.495 440.565 629.495 422.142C629.495 402.023 613.185 385.714 593.066 385.714C572.947 385.714 556.638 402.023 556.638 422.142C556.638 441.056 571.052 456.603 589.495 458.398ZM589.495 467.003C566.312 465.182 548.066 445.793 548.066 422.142C548.066 397.289 568.213 377.142 593.066 377.142C617.919 377.142 638.066 397.289 638.066 422.142C638.066 445.305 620.566 464.38 598.066 466.868V485.714C598.066 488.081 596.147 489.999 593.781 489.999C591.414 489.999 589.495 488.081 589.495 485.714V467.003Z" fill="#1F2744"/>
<path d="M649.494 419.285C649.494 399.955 665.164 384.285 684.494 384.285H688.78C708.11 384.285 723.78 399.955 723.78 419.285V423.57C723.78 442.9 708.11 458.57 688.78 458.57H684.494C665.164 458.57 649.494 442.9 649.494 423.57V419.285Z" fill="white"/>
<path fill-rule="evenodd" clip-rule="evenodd" d="M682.352 458.398L682.352 407.142C682.352 404.775 684.27 402.857 686.637 402.857C689.004 402.857 690.923 404.775 690.923 407.142V438.571L699.321 430.173C700.995 428.499 703.708 428.499 705.382 430.173C707.056 431.846 707.056 434.56 705.382 436.234L691.443 450.173C691.279 450.337 691.105 450.485 690.923 450.617V458.231C708.676 455.794 722.351 440.565 722.351 422.142C722.351 402.023 706.042 385.714 685.923 385.714C665.804 385.714 649.494 402.023 649.494 422.142C649.494 441.056 663.909 456.603 682.352 458.398ZM682.352 467.003C659.168 465.182 640.923 445.793 640.923 422.142C640.923 397.289 661.07 377.142 685.923 377.142C710.776 377.142 730.923 397.289 730.923 422.142C730.923 445.305 713.423 464.38 690.923 466.868V485.714C690.923 488.081 689.004 489.999 686.637 489.999C684.27 489.999 682.352 488.081 682.352 485.714V467.003Z" fill="#1F2744"/>
<path d="M742.351 419.285C742.351 399.955 758.021 384.285 777.351 384.285H781.637C800.967 384.285 816.637 399.955 816.637 419.285V423.57C816.637 442.9 800.967 458.57 781.637 458.57H777.351C758.021 458.57 742.351 442.9 742.351 423.57V419.285Z" fill="white"/>
<path fill-rule="evenodd" clip-rule="evenodd" d="M775.209 458.398L775.209 407.142C775.209 404.775 777.128 402.857 779.495 402.857C781.861 402.857 783.78 404.775 783.78 407.142V438.571L792.178 430.173C793.852 428.499 796.566 428.499 798.239 430.173C799.913 431.846 799.913 434.56 798.239 436.234L784.3 450.173C784.136 450.337 783.962 450.485 783.78 450.617V458.231C801.533 455.794 815.209 440.565 815.209 422.142C815.209 402.023 798.899 385.714 778.78 385.714C758.661 385.714 742.352 402.023 742.352 422.142C742.352 441.056 756.766 456.603 775.209 458.398ZM775.209 467.003C752.026 465.182 733.78 445.793 733.78 422.142C733.78 397.289 753.927 377.142 778.78 377.142C803.633 377.142 823.78 397.289 823.78 422.142C823.78 445.305 806.28 464.38 783.78 466.868V485.714C783.78 488.081 781.861 489.999 779.495 489.999C777.128 489.999 775.209 488.081 775.209 485.714V467.003Z" fill="#1F2744"/>
<path fill-rule="evenodd" clip-rule="evenodd" d="M143.781 371.428C146.148 371.428 148.066 373.347 148.066 375.714L148.066 485.714C148.066 488.081 146.148 490 143.781 490C141.414 490 139.495 488.081 139.495 485.714L139.495 375.714C139.495 373.347 141.414 371.428 143.781 371.428Z" fill="#1F2744"/>
<path fill-rule="evenodd" clip-rule="evenodd" d="M159.668 405.887C161.342 407.561 161.342 410.275 159.668 411.948L148.586 423.03C146.913 424.704 144.199 424.704 142.525 423.03C140.852 421.356 140.852 418.643 142.525 416.969L153.607 405.887C155.281 404.214 157.995 404.214 159.668 405.887Z" fill="#1F2744"/>
<path fill-rule="evenodd" clip-rule="evenodd" d="M145.036 388.744C143.362 390.418 140.649 390.418 138.975 388.744L127.893 377.662C126.219 375.989 126.219 373.275 127.893 371.601C129.567 369.928 132.28 369.928 133.954 371.601L145.036 382.683C146.71 384.357 146.71 387.071 145.036 388.744Z" fill="#1F2744"/>
<path fill-rule="evenodd" clip-rule="evenodd" d="M182.966 250.062L184.142 245.03C184.839 242.043 185.21 238.926 185.21 235.714C185.21 212.948 166.457 194.285 143.067 194.285C119.677 194.285 100.924 212.948 100.924 235.714C100.924 238.926 101.294 242.043 101.992 245.03L103.167 250.062L99.265 253.451C85.3691 265.518 76.6382 283.183 76.6382 302.857C76.6382 309.085 77.5117 315.098 79.1392 320.788L80.2636 324.72L77.9152 328.067C69.0009 340.775 63.7811 356.201 63.7811 372.857C63.7811 416.184 99.2124 451.428 143.067 451.428C186.921 451.428 222.352 416.184 222.352 372.857C222.352 356.201 217.133 340.775 208.218 328.067L205.87 324.72L206.994 320.788C208.622 315.098 209.495 309.085 209.495 302.857C209.495 283.183 200.764 265.518 186.868 253.451L182.966 250.062ZM215.235 323.145C225.126 337.244 230.924 354.379 230.924 372.857C230.924 420.984 191.589 459.999 143.067 459.999C94.5446 459.999 55.2097 420.984 55.2097 372.857C55.2097 354.379 61.0079 337.244 70.8981 323.145C69.0538 316.696 68.0668 309.891 68.0668 302.857C68.0668 280.581 77.966 260.595 93.6449 246.979C92.7993 243.358 92.3525 239.588 92.3525 235.714C92.3525 208.1 115.058 185.714 143.067 185.714C171.075 185.714 193.781 208.1 193.781 235.714C193.781 239.588 193.334 243.358 192.489 246.979C208.167 260.595 218.067 280.581 218.067 302.857C218.067 309.891 217.08 316.696 215.235 323.145Z" fill="#1F2744"/>
<path d="M256.638 419.999C256.638 441.302 239.369 458.571 218.067 458.571C196.764 458.571 179.495 441.302 179.495 419.999C179.495 398.697 196.764 381.428 218.067 381.428C239.369 381.428 256.638 398.697 256.638 419.999Z" fill="white"/>
<path fill-rule="evenodd" clip-rule="evenodd" d="M213.781 458.398L213.781 407.142C213.781 404.775 215.7 402.857 218.067 402.857C220.434 402.857 222.352 404.775 222.352 407.142V438.571L230.75 430.173C232.424 428.499 235.138 428.499 236.811 430.173C238.485 431.846 238.485 434.56 236.811 436.234L222.872 450.173C222.708 450.337 222.534 450.485 222.352 450.617V458.231C240.105 455.794 253.781 440.565 253.781 422.142C253.781 402.023 237.471 385.714 217.352 385.714C197.233 385.714 180.924 402.023 180.924 422.142C180.924 441.056 195.338 456.603 213.781 458.398ZM213.781 467.003C190.598 465.182 172.352 445.793 172.352 422.142C172.352 397.289 192.5 377.142 217.352 377.142C242.205 377.142 262.352 397.289 262.352 422.142C262.352 445.305 244.852 464.38 222.352 466.868V485.714C222.352 488.081 220.434 489.999 218.067 489.999C215.7 489.999 213.781 488.081 213.781 485.714V467.003Z" fill="#1F2744"/>
<path d="M300.924 210L305.21 157.857L385.21 62.5525V272.142V479.285H278.067V229.285L300.924 210Z" fill="white"/>
<path fill-rule="evenodd" clip-rule="evenodd" d="M188.067 237.856C188.067 242.7 187.302 247.365 185.886 251.736C200.333 264.052 209.495 282.384 209.495 302.856C209.495 310.767 208.127 318.359 205.614 325.408C216.97 339.313 223.781 357.075 223.781 376.428C223.781 421.005 187.644 457.142 143.067 457.142C98.4897 457.142 62.3527 421.005 62.3527 376.428C62.3527 357.638 68.7734 340.347 79.5404 326.631C76.7416 319.24 75.2096 311.227 75.2096 302.856C75.2096 281.853 84.853 263.102 99.9537 250.791C98.7265 246.694 98.0671 242.352 98.0671 237.856C98.0671 213.003 118.214 192.856 143.067 192.856C167.92 192.856 188.067 213.003 188.067 237.856Z" fill="white"/>
<path d="M713.78 28.5715H876.637V490H713.78V28.5715Z" fill="white"/>
<path fill-rule="evenodd" clip-rule="evenodd" d="M868.065 37.143H722.351V481.428H868.065V37.143ZM713.78 28.5715V490H876.637V28.5715H713.78Z" fill="#1F2744"/>
<path d="M738.066 0H852.351V37.1428H738.066V0Z" fill="white"/>
<path fill-rule="evenodd" clip-rule="evenodd" d="M843.78 8.57142H746.637V28.5714H843.78V8.57142ZM738.066 0V37.1428H852.351V0H738.066Z" fill="#1F2744"/>
<path d="M626.637 130H722.351V490H626.637V130Z" fill="white"/>
<path fill-rule="evenodd" clip-rule="evenodd" d="M713.78 138.572H635.208V481.428H713.78V138.572ZM626.637 130V490H722.351V130H626.637Z" fill="#1F2744"/>
<path d="M868.066 262.857H963.78V489.999H868.066V262.857Z" fill="white"/>
<path fill-rule="evenodd" clip-rule="evenodd" d="M955.209 271.428H876.637V481.428H955.209V271.428ZM868.066 262.857V489.999H963.78V262.857H868.066Z" fill="#1F2744"/>
<path fill-rule="evenodd" clip-rule="evenodd" d="M815.923 107.202C816.155 107.164 816.394 107.143 816.637 107.143H839.494C841.861 107.143 843.78 109.062 843.78 111.429C843.78 113.796 841.861 115.715 839.494 115.715H816.637C816.394 115.715 816.155 115.694 815.923 115.655C815.69 115.694 815.452 115.715 815.209 115.715H796.637H792.351H773.78H750.923C748.556 115.715 746.637 113.796 746.637 111.429C746.637 109.062 748.556 107.143 750.923 107.143H773.78H792.351H796.637H815.209C815.452 107.143 815.69 107.164 815.923 107.202ZM815.923 81.4882C816.155 81.4492 816.394 81.429 816.637 81.429L839.494 81.429C841.861 81.429 843.78 83.3477 843.78 85.7147C843.78 88.0816 841.861 90.0004 839.494 90.0004L816.637 90.0004C816.394 90.0004 816.155 89.9801 815.923 89.9411C815.69 89.9801 815.452 90.0004 815.209 90.0004H796.637L792.351 90.0004L792.348 90.0004H773.78H773.777L750.923 90.0004C748.556 90.0004 746.637 88.0816 746.637 85.7147C746.637 83.3477 748.556 81.429 750.923 81.429H773.78H773.783H796.637H796.64H815.209C815.452 81.429 815.69 81.4492 815.923 81.4882Z" fill="#1F2744"/>
<path fill-rule="evenodd" clip-rule="evenodd" d="M918.065 308.571C915.698 308.571 913.78 310.49 913.78 312.857C913.78 315.224 915.698 317.142 918.065 317.142H940.922C943.289 317.142 945.208 315.224 945.208 312.857C945.208 310.49 943.289 308.571 940.922 308.571H918.065ZM918.065 291.428C915.698 291.428 913.78 293.347 913.78 295.714C913.78 298.081 915.698 300 918.065 300H940.922C943.289 300 945.208 298.081 945.208 295.714C945.208 293.347 943.289 291.428 940.922 291.428L918.065 291.428Z" fill="#1F2744"/>
<path fill-rule="evenodd" clip-rule="evenodd" d="M929.494 312.857C929.494 310.49 931.413 308.571 933.78 308.571L956.637 308.571C959.004 308.571 960.923 310.49 960.923 312.857C960.923 315.224 959.004 317.142 956.637 317.142L933.78 317.142C931.413 317.142 929.494 315.224 929.494 312.857Z" fill="#1F2744"/>
<path fill-rule="evenodd" clip-rule="evenodd" d="M929.494 295.714C929.494 293.347 931.413 291.428 933.78 291.428L956.637 291.428C959.004 291.428 960.923 293.347 960.923 295.714C960.923 298.081 959.004 300 956.637 300L933.78 300C931.413 300 929.494 298.081 929.494 295.714Z" fill="#1F2744"/>
<path fill-rule="evenodd" clip-rule="evenodd" d="M918.065 342.857C915.698 342.857 913.78 344.776 913.78 347.143C913.78 349.51 915.698 351.428 918.065 351.428H940.922C943.289 351.428 945.208 349.51 945.208 347.143C945.208 344.776 943.289 342.857 940.922 342.857H918.065ZM918.065 325.714C915.698 325.714 913.78 327.633 913.78 330C913.78 332.367 915.698 334.286 918.065 334.286H940.922C943.289 334.286 945.208 332.367 945.208 330C945.208 327.633 943.289 325.714 940.922 325.714L918.065 325.714Z" fill="#1F2744"/>
<path fill-rule="evenodd" clip-rule="evenodd" d="M929.494 347.142C929.494 344.775 931.413 342.856 933.78 342.856L956.637 342.856C959.004 342.856 960.923 344.775 960.923 347.142C960.923 349.509 959.004 351.428 956.637 351.428L933.78 351.428C931.413 351.428 929.494 349.509 929.494 347.142Z" fill="#1F2744"/>
<path fill-rule="evenodd" clip-rule="evenodd" d="M929.494 330C929.494 327.633 931.413 325.714 933.78 325.714L956.637 325.714C959.004 325.714 960.923 327.633 960.923 330C960.923 332.367 959.004 334.286 956.637 334.286L933.78 334.286C931.413 334.286 929.494 332.367 929.494 330Z" fill="#1F2744"/>
<path fill-rule="evenodd" clip-rule="evenodd" d="M918.065 377.142C915.698 377.142 913.78 379.061 913.78 381.428C913.78 383.795 915.698 385.714 918.065 385.714H940.922C943.289 385.714 945.208 383.795 945.208 381.428C945.208 379.061 943.289 377.142 940.922 377.142H918.065ZM918.065 360C915.698 360 913.78 361.918 913.78 364.285C913.78 366.652 915.698 368.571 918.065 368.571H940.922C943.289 368.571 945.208 366.652 945.208 364.285C945.208 361.918 943.289 360 940.922 360L918.065 360Z" fill="#1F2744"/>
<path fill-rule="evenodd" clip-rule="evenodd" d="M929.494 381.428C929.494 379.061 931.413 377.142 933.78 377.142L956.637 377.142C959.004 377.142 960.923 379.061 960.923 381.428C960.923 383.795 959.004 385.714 956.637 385.714L933.78 385.714C931.413 385.714 929.494 383.795 929.494 381.428Z" fill="#1F2744"/>
<path fill-rule="evenodd" clip-rule="evenodd" d="M929.494 364.285C929.494 361.918 931.413 360 933.78 360L956.637 360C959.004 360 960.923 361.918 960.923 364.285C960.923 366.652 959.004 368.571 956.637 368.571L933.78 368.571C931.413 368.571 929.494 366.652 929.494 364.285Z" fill="#1F2744"/>
<path fill-rule="evenodd" clip-rule="evenodd" d="M918.065 411.428C915.698 411.428 913.78 413.347 913.78 415.714C913.78 418.081 915.698 420 918.065 420H940.922C943.289 420 945.208 418.081 945.208 415.714C945.208 413.347 943.289 411.428 940.922 411.428H918.065ZM918.065 394.285C915.698 394.285 913.78 396.204 913.78 398.571C913.78 400.938 915.698 402.857 918.065 402.857H940.922C943.289 402.857 945.208 400.938 945.208 398.571C945.208 396.204 943.289 394.285 940.922 394.285L918.065 394.285Z" fill="#1F2744"/>
<path fill-rule="evenodd" clip-rule="evenodd" d="M929.494 415.714C929.494 413.347 931.413 411.428 933.78 411.428L956.637 411.428C959.004 411.428 960.923 413.347 960.923 415.714C960.923 418.081 959.004 420 956.637 420L933.78 420C931.413 420 929.494 418.081 929.494 415.714Z" fill="#1F2744"/>
<path fill-rule="evenodd" clip-rule="evenodd" d="M929.494 398.571C929.494 396.204 931.413 394.285 933.78 394.285L956.637 394.285C959.004 394.285 960.923 396.204 960.923 398.571C960.923 400.938 959.004 402.857 956.637 402.857L933.78 402.857C931.413 402.857 929.494 400.938 929.494 398.571Z" fill="#1F2744"/>
<path fill-rule="evenodd" clip-rule="evenodd" d="M918.065 445.714C915.698 445.714 913.78 447.633 913.78 450C913.78 452.367 915.698 454.286 918.065 454.286H940.922C943.289 454.286 945.208 452.367 945.208 450C945.208 447.633 943.289 445.714 940.922 445.714H918.065ZM918.065 428.571C915.698 428.571 913.78 430.49 913.78 432.857C913.78 435.224 915.698 437.143 918.065 437.143H940.922C943.289 437.143 945.208 435.224 945.208 432.857C945.208 430.49 943.289 428.571 940.922 428.571L918.065 428.571Z" fill="#1F2744"/>
<path fill-rule="evenodd" clip-rule="evenodd" d="M929.494 449.999C929.494 447.632 931.413 445.713 933.78 445.713L956.637 445.713C959.004 445.713 960.923 447.632 960.923 449.999C960.923 452.366 959.004 454.285 956.637 454.285L933.78 454.285C931.413 454.285 929.494 452.366 929.494 449.999Z" fill="#1F2744"/>
<path fill-rule="evenodd" clip-rule="evenodd" d="M929.494 432.857C929.494 430.49 931.413 428.571 933.78 428.571L956.637 428.571C959.004 428.571 960.923 430.49 960.923 432.857C960.923 435.224 959.004 437.143 956.637 437.143L933.78 437.143C931.413 437.143 929.494 435.224 929.494 432.857Z" fill="#1F2744"/>
<path fill-rule="evenodd" clip-rule="evenodd" d="M815.923 158.63C816.155 158.591 816.394 158.571 816.637 158.571H839.494C841.861 158.571 843.78 160.489 843.78 162.856C843.78 165.223 841.861 167.142 839.494 167.142H816.637C816.394 167.142 816.155 167.122 815.923 167.083C815.69 167.122 815.452 167.142 815.209 167.142H796.637H792.351H773.78H750.923C748.556 167.142 746.637 165.223 746.637 162.856C746.637 160.489 748.556 158.571 750.923 158.571H773.78H792.351H796.637H815.209C815.452 158.571 815.69 158.591 815.923 158.63ZM815.923 132.916C816.155 132.877 816.394 132.856 816.637 132.856L839.494 132.856C841.861 132.856 843.78 134.775 843.78 137.142C843.78 139.509 841.861 141.428 839.494 141.428L816.637 141.428C816.394 141.428 816.155 141.408 815.923 141.369C815.69 141.408 815.452 141.428 815.209 141.428H796.637L792.351 141.428L792.348 141.428H773.78H773.777L750.923 141.428C748.556 141.428 746.637 139.509 746.637 137.142C746.637 134.775 748.556 132.856 750.923 132.856H773.78H773.783H796.637H796.64H815.209C815.452 132.856 815.69 132.877 815.923 132.916Z" fill="#1F2744"/>
<path d="M539.495 192.856H635.209V489.999H539.495V192.856Z" fill="white"/>
<path fill-rule="evenodd" clip-rule="evenodd" d="M626.638 201.428H548.066V481.427H626.638V201.428ZM539.495 192.856V489.999H635.209V192.856H539.495Z" fill="#1F2744"/>
<path fill-rule="evenodd" clip-rule="evenodd" d="M596.637 244.286C596.637 246.653 598.556 248.571 600.923 248.571C603.29 248.571 605.208 246.653 605.208 244.286L605.208 221.428C605.208 219.062 603.29 217.143 600.923 217.143C598.556 217.143 596.637 219.062 596.637 221.428L596.637 244.286ZM570.923 244.286C570.923 246.653 572.842 248.571 575.209 248.571C577.575 248.571 579.494 246.653 579.494 244.286L579.494 221.428C579.494 219.062 577.575 217.143 575.209 217.143C572.842 217.143 570.923 219.062 570.923 221.428L570.923 244.286Z" fill="#1F2744"/>
<path fill-rule="evenodd" clip-rule="evenodd" d="M596.637 294.286C596.637 296.653 598.556 298.571 600.923 298.571C603.29 298.571 605.208 296.653 605.208 294.286L605.208 271.428C605.208 269.062 603.29 267.143 600.923 267.143C598.556 267.143 596.637 269.062 596.637 271.428L596.637 294.286ZM570.923 294.286C570.923 296.653 572.842 298.571 575.209 298.571C577.575 298.571 579.494 296.653 579.494 294.286L579.494 271.428C579.494 269.062 577.575 267.143 575.209 267.143C572.842 267.143 570.923 269.062 570.923 271.428L570.923 294.286Z" fill="#1F2744"/>
<path fill-rule="evenodd" clip-rule="evenodd" d="M596.637 344.285C596.637 346.652 598.556 348.571 600.923 348.571C603.29 348.571 605.208 346.652 605.208 344.285L605.208 321.428C605.208 319.061 603.29 317.143 600.923 317.143C598.556 317.143 596.637 319.061 596.637 321.428L596.637 344.285ZM570.923 344.285C570.923 346.652 572.842 348.571 575.209 348.571C577.575 348.571 579.494 346.652 579.494 344.285L579.494 321.428C579.494 319.061 577.575 317.143 575.209 317.143C572.842 317.143 570.923 319.061 570.923 321.428L570.923 344.285Z" fill="#1F2744"/>
<path fill-rule="evenodd" clip-rule="evenodd" d="M596.637 394.285C596.637 396.652 598.556 398.571 600.923 398.571C603.29 398.571 605.208 396.652 605.208 394.285L605.208 371.428C605.208 369.061 603.29 367.142 600.923 367.142C598.556 367.142 596.637 369.061 596.637 371.428L596.637 394.285ZM570.923 394.285C570.923 396.652 572.842 398.571 575.209 398.571C577.575 398.571 579.494 396.652 579.494 394.285L579.494 371.428C579.494 369.061 577.575 367.142 575.209 367.142C572.842 367.142 570.923 369.061 570.923 371.428L570.923 394.285Z" fill="#1F2744"/>
<path fill-rule="evenodd" clip-rule="evenodd" d="M596.637 444.285C596.637 446.652 598.556 448.571 600.923 448.571C603.29 448.571 605.208 446.652 605.208 444.285L605.208 421.428C605.208 419.061 603.29 417.142 600.923 417.142C598.556 417.142 596.637 419.061 596.637 421.428L596.637 444.285ZM570.923 444.285C570.923 446.652 572.842 448.571 575.209 448.571C577.575 448.571 579.494 446.652 579.494 444.285L579.494 421.428C579.494 419.061 577.575 417.142 575.209 417.142C572.842 417.142 570.923 419.061 570.923 421.428L570.923 444.285Z" fill="#1F2744"/>
<path fill-rule="evenodd" clip-rule="evenodd" d="M815.923 261.487C816.155 261.448 816.394 261.428 816.637 261.428H839.494C841.861 261.428 843.78 263.347 843.78 265.714C843.78 268.081 841.861 270 839.494 270H816.637C816.394 270 816.155 269.979 815.923 269.94C815.69 269.979 815.452 270 815.209 270H796.637H792.351H773.78H750.923C748.556 270 746.637 268.081 746.637 265.714C746.637 263.347 748.556 261.428 750.923 261.428H773.78H792.351H796.637H815.209C815.452 261.428 815.69 261.448 815.923 261.487ZM815.923 235.773C816.155 235.734 816.394 235.714 816.637 235.714L839.494 235.714C841.861 235.714 843.78 237.633 843.78 240C843.78 242.367 841.861 244.285 839.494 244.285L816.637 244.285C816.394 244.285 816.155 244.265 815.923 244.226C815.69 244.265 815.452 244.285 815.209 244.285H796.637L792.351 244.285L792.348 244.285H773.78H773.777L750.923 244.285C748.556 244.285 746.637 242.367 746.637 240C746.637 237.633 748.556 235.714 750.923 235.714H773.78H773.783H796.637H796.64H815.209C815.452 235.714 815.69 235.734 815.923 235.773Z" fill="#1F2744"/>
<path fill-rule="evenodd" clip-rule="evenodd" d="M815.923 210.059C816.155 210.02 816.394 210 816.637 210H839.494C841.861 210 843.78 211.918 843.78 214.285C843.78 216.652 841.861 218.571 839.494 218.571H816.637C816.394 218.571 816.155 218.551 815.923 218.512C815.69 218.551 815.452 218.571 815.209 218.571H796.637H792.351H773.78H750.923C748.556 218.571 746.637 216.652 746.637 214.285C746.637 211.918 748.556 210 750.923 210H773.78H792.351H796.637H815.209C815.452 210 815.69 210.02 815.923 210.059ZM815.923 184.345C816.155 184.306 816.394 184.285 816.637 184.285L839.494 184.285C841.861 184.285 843.78 186.204 843.78 188.571C843.78 190.938 841.861 192.857 839.494 192.857L816.637 192.857C816.394 192.857 816.155 192.837 815.923 192.798C815.69 192.837 815.452 192.857 815.209 192.857H796.637L792.351 192.857L792.348 192.857H773.78H773.777L750.923 192.857C748.556 192.857 746.637 190.938 746.637 188.571C746.637 186.204 748.556 184.285 750.923 184.285H773.78H773.783H796.637H796.64H815.209C815.452 184.285 815.69 184.306 815.923 184.345Z" fill="#1F2744"/>
<path fill-rule="evenodd" clip-rule="evenodd" d="M815.923 312.916C816.155 312.877 816.394 312.857 816.637 312.857H839.494C841.861 312.857 843.78 314.776 843.78 317.143C843.78 319.51 841.861 321.429 839.494 321.429H816.637C816.394 321.429 816.155 321.408 815.923 321.369C815.69 321.408 815.452 321.429 815.209 321.429H796.637H792.351H773.78H750.923C748.556 321.429 746.637 319.51 746.637 317.143C746.637 314.776 748.556 312.857 750.923 312.857H773.78H792.351H796.637H815.209C815.452 312.857 815.69 312.877 815.923 312.916ZM815.923 287.202C816.155 287.163 816.394 287.143 816.637 287.143L839.494 287.143C841.861 287.143 843.78 289.062 843.78 291.429C843.78 293.795 841.861 295.714 839.494 295.714L816.637 295.714C816.394 295.714 816.155 295.694 815.923 295.655C815.69 295.694 815.452 295.714 815.209 295.714H796.637L792.351 295.714L792.348 295.714H773.78H773.777L750.923 295.714C748.556 295.714 746.637 293.795 746.637 291.429C746.637 289.062 748.556 287.143 750.923 287.143H773.78H773.783H796.637H796.64H815.209C815.452 287.143 815.69 287.163 815.923 287.202Z" fill="#1F2744"/>
<path fill-rule="evenodd" clip-rule="evenodd" d="M815.923 364.344C816.155 364.305 816.394 364.285 816.637 364.285H839.494C841.861 364.285 843.78 366.203 843.78 368.57C843.78 370.937 841.861 372.856 839.494 372.856H816.637C816.394 372.856 816.155 372.836 815.923 372.797C815.69 372.836 815.452 372.856 815.209 372.856H796.637H792.351H773.78H750.923C748.556 372.856 746.637 370.937 746.637 368.57C746.637 366.203 748.556 364.285 750.923 364.285H773.78H792.351H796.637H815.209C815.452 364.285 815.69 364.305 815.923 364.344ZM815.923 338.63C816.155 338.591 816.394 338.57 816.637 338.57L839.494 338.57C841.861 338.57 843.78 340.489 843.78 342.856C843.78 345.223 841.861 347.142 839.494 347.142L816.637 347.142C816.394 347.142 816.155 347.121 815.923 347.082C815.69 347.121 815.452 347.142 815.209 347.142H796.637L792.351 347.142L792.348 347.142H773.78H773.777L750.923 347.142C748.556 347.142 746.637 345.223 746.637 342.856C746.637 340.489 748.556 338.57 750.923 338.57H773.78H773.783H796.637H796.64H815.209C815.452 338.57 815.69 338.591 815.923 338.63Z" fill="#1F2744"/>
<path fill-rule="evenodd" clip-rule="evenodd" d="M648.066 215.714V197.143V174.286C648.066 171.919 649.985 170 652.352 170C654.719 170 656.637 171.919 656.637 174.286L656.637 197.143L656.637 215.712L656.637 215.714V227.136L656.637 227.143L656.637 250C656.637 250.002 656.637 250.003 656.637 250.005V255.714L656.637 274.283L656.637 274.286V285.707L656.637 285.714L656.637 308.571C656.637 310.938 654.719 312.857 652.352 312.857C649.985 312.857 648.066 310.938 648.066 308.571L648.066 297.15L648.066 297.143V278.574V278.571V274.286V255.714V238.571V232.857V220.002V220V215.714Z" fill="#1F2744"/>
<path fill-rule="evenodd" clip-rule="evenodd" d="M648.066 307.143V288.572V265.715C648.066 263.348 649.985 261.429 652.352 261.429C654.719 261.429 656.637 263.348 656.637 265.715L656.637 288.572L656.637 307.141L656.637 307.143V318.565L656.637 318.572L656.637 341.429C656.637 341.431 656.637 341.432 656.637 341.434V347.143L656.637 365.712L656.637 365.715V377.136L656.637 377.143L656.637 400C656.637 402.367 654.719 404.286 652.352 404.286C649.985 404.286 648.066 402.367 648.066 400L648.066 388.579L648.066 388.572V370.003V370V365.715V347.143V330V324.286V311.431V311.429V307.143Z" fill="#1F2744"/>
<path fill-rule="evenodd" clip-rule="evenodd" d="M669.494 215.714V197.143V174.286C669.494 171.919 671.413 170 673.78 170C676.147 170 678.066 171.919 678.066 174.286L678.066 197.143L678.066 215.712L678.066 215.714V227.136L678.066 227.143L678.066 250C678.066 250.002 678.066 250.003 678.066 250.005V255.714L678.066 274.283L678.066 274.286V285.707L678.066 285.714L678.066 308.571C678.066 310.938 676.147 312.857 673.78 312.857C671.413 312.857 669.494 310.938 669.494 308.571L669.494 297.15L669.494 297.143V278.574V278.571V274.286V255.714V238.571V232.857V220.002V220V215.714Z" fill="#1F2744"/>
<path fill-rule="evenodd" clip-rule="evenodd" d="M669.494 307.143V288.572V265.715C669.494 263.348 671.413 261.429 673.78 261.429C676.147 261.429 678.066 263.348 678.066 265.715L678.066 288.572L678.066 307.141L678.066 307.143V318.565L678.066 318.572L678.066 341.429C678.066 341.431 678.066 341.432 678.066 341.434V347.143L678.066 365.712L678.066 365.715V377.136L678.066 377.143L678.066 400C678.066 402.367 676.147 404.286 673.78 404.286C671.413 404.286 669.494 402.367 669.494 400L669.494 388.579L669.494 388.572V370.003V370V365.715V347.143V330V324.286V311.431V311.429V307.143Z" fill="#1F2744"/>
<path fill-rule="evenodd" clip-rule="evenodd" d="M690.923 215.714V197.143V174.286C690.923 171.919 692.842 170 695.209 170C697.576 170 699.495 171.919 699.495 174.286L699.495 197.143L699.495 215.712L699.495 215.714V227.136L699.495 227.143L699.495 250C699.495 250.002 699.495 250.003 699.495 250.005V255.714L699.495 274.283L699.495 274.286V285.707L699.495 285.714L699.495 308.571C699.495 310.938 697.576 312.857 695.209 312.857C692.842 312.857 690.923 310.938 690.923 308.571L690.923 297.15L690.923 297.143V278.574V278.571V274.286V255.714V238.571V232.857V220.002V220V215.714Z" fill="#1F2744"/>
<path fill-rule="evenodd" clip-rule="evenodd" d="M690.923 307.143V288.572V265.715C690.923 263.348 692.842 261.429 695.209 261.429C697.576 261.429 699.495 263.348 699.495 265.715L699.495 288.572L699.495 307.141L699.495 307.143V318.565L699.495 318.572L699.495 341.429C699.495 341.431 699.495 341.432 699.495 341.434V347.143L699.495 365.712L699.495 365.715V377.136L699.495 377.143L699.495 400C699.495 402.367 697.576 404.286 695.209 404.286C692.842 404.286 690.923 402.367 690.923 400L690.923 388.579L690.923 388.572V370.003V370V365.715V347.143V330V324.286V311.431V311.429V307.143Z" fill="#1F2744"/>
<path fill-rule="evenodd" clip-rule="evenodd" d="M648.066 367.142V348.57V325.713C648.066 323.346 649.985 321.427 652.352 321.427C654.719 321.427 656.637 323.346 656.637 325.713L656.637 348.57L656.637 367.139L656.637 367.142V378.563L656.637 378.57L656.637 401.427C656.637 401.429 656.637 401.431 656.637 401.433V407.142L656.637 425.711L656.637 425.713V437.135L656.637 437.142L656.637 459.999C656.637 462.366 654.719 464.284 652.352 464.284C649.985 464.284 648.066 462.366 648.066 459.999L648.066 448.577L648.066 448.57V430.001V429.999V425.713V407.142V389.999V384.285V371.43V371.427V367.142Z" fill="#1F2744"/>
<path fill-rule="evenodd" clip-rule="evenodd" d="M669.494 367.142V348.57V325.713C669.494 323.346 671.413 321.427 673.78 321.427C676.147 321.427 678.066 323.346 678.066 325.713L678.066 348.57L678.066 367.139L678.066 367.142V378.563L678.066 378.57L678.066 401.427C678.066 401.429 678.066 401.431 678.066 401.433V407.142L678.066 425.711L678.066 425.713V437.135L678.066 437.142L678.066 459.999C678.066 462.366 676.147 464.284 673.78 464.284C671.413 464.284 669.494 462.366 669.494 459.999L669.494 448.577L669.494 448.57V430.001V429.999V425.713V407.142V389.999V384.285V371.43V371.427V367.142Z" fill="#1F2744"/>
<path fill-rule="evenodd" clip-rule="evenodd" d="M690.923 367.142V348.57V325.713C690.923 323.346 692.842 321.427 695.209 321.427C697.576 321.427 699.495 323.346 699.495 325.713L699.495 348.57L699.495 367.139L699.495 367.142V378.563L699.495 378.57L699.495 401.427C699.495 401.429 699.495 401.431 699.495 401.433V407.142L699.495 425.711L699.495 425.713V437.135L699.495 437.142L699.495 459.999C699.495 462.366 697.576 464.284 695.209 464.284C692.842 464.284 690.923 462.366 690.923 459.999L690.923 448.577L690.923 448.57V430.001V429.999V425.713V407.142V389.999V384.285V371.43V371.427V367.142Z" fill="#1F2744"/>
<path fill-rule="evenodd" clip-rule="evenodd" d="M815.923 415.774C816.155 415.735 816.394 415.714 816.637 415.714H839.494C841.861 415.714 843.78 417.633 843.78 420C843.78 422.367 841.861 424.286 839.494 424.286H816.637C816.394 424.286 816.155 424.265 815.923 424.226C815.69 424.265 815.452 424.286 815.209 424.286H796.637H792.351H773.78H750.923C748.556 424.286 746.637 422.367 746.637 420C746.637 417.633 748.556 415.714 750.923 415.714H773.78H792.351H796.637H815.209C815.452 415.714 815.69 415.735 815.923 415.774ZM815.923 390.059C816.155 390.02 816.394 390 816.637 390L839.494 390C841.861 390 843.78 391.919 843.78 394.286C843.78 396.653 841.861 398.571 839.494 398.571L816.637 398.571C816.394 398.571 816.155 398.551 815.923 398.512C815.69 398.551 815.452 398.571 815.209 398.571H796.637L792.351 398.571L792.348 398.571H773.78H773.777L750.923 398.571C748.556 398.571 746.637 396.653 746.637 394.286C746.637 391.919 748.556 390 750.923 390H773.78H773.783H796.637H796.64H815.209C815.452 390 815.69 390.02 815.923 390.059Z" fill="#1F2744"/>
<path fill-rule="evenodd" clip-rule="evenodd" d="M392.352 39.1653V488.571H269.495V231.746L291.78 211.536L295.663 160.607L392.352 39.1653ZM304.009 163.885L300.067 215.592L278.067 235.544V480H383.781V63.692L304.009 163.885Z" fill="#1F2744"/>
<path fill-rule="evenodd" clip-rule="evenodd" d="M368.067 120C370.434 120 372.352 121.919 372.352 124.286L372.352 141.426L372.352 141.429L372.352 147.143V164.282V164.286V185.711L372.352 185.714L372.352 187.143V202.854L372.352 202.857L372.352 208.572V225.711V225.714V242.854C372.352 242.855 372.352 242.856 372.352 242.857L372.352 248.572V265.714C372.352 268.081 370.434 270 368.067 270C365.7 270 363.781 268.081 363.781 265.714V248.572V242.857V225.714V208.572V202.857V187.143V185.714V164.286V147.143V141.429V124.286C363.781 121.919 365.7 120 368.067 120Z" fill="#1F2744"/>
<path fill-rule="evenodd" clip-rule="evenodd" d="M349.495 141.429C351.862 141.429 353.781 143.347 353.781 145.714L353.781 162.854L353.781 162.857L353.781 168.572V185.711V185.714V207.139L353.781 207.143L353.781 208.572V224.282L353.781 224.286L353.781 230V247.139V247.143V264.282C353.781 264.283 353.781 264.285 353.781 264.286L353.781 270V287.143C353.781 289.51 351.862 291.429 349.495 291.429C347.128 291.429 345.21 289.51 345.21 287.143V270V264.286V247.143V230V224.286V208.572V207.143V185.714V168.572V162.857V145.714C345.21 143.347 347.128 141.429 349.495 141.429Z" fill="#1F2744"/>
<path fill-rule="evenodd" clip-rule="evenodd" d="M330.923 158.572C333.29 158.572 335.209 160.491 335.209 162.857L335.209 179.997L335.209 180L335.209 185.715V202.854V202.857V224.283L335.209 224.286L335.209 225.715V241.425L335.209 241.429L335.209 247.143V264.283V264.286V281.425C335.209 281.427 335.209 281.428 335.209 281.429L335.209 287.143V304.286C335.209 306.653 333.29 308.572 330.923 308.572C328.556 308.572 326.638 306.653 326.638 304.286V287.143V281.429V264.286V247.143V241.429V225.715V224.286V202.857V185.715V180V162.857C326.638 160.491 328.556 158.572 330.923 158.572Z" fill="#1F2744"/>
<path fill-rule="evenodd" clip-rule="evenodd" d="M368.066 254.286C370.433 254.286 372.352 256.205 372.352 258.572L372.352 281.429C372.352 283.796 370.433 285.714 368.066 285.714C365.699 285.714 363.781 283.796 363.781 281.429L363.781 258.572C363.781 256.205 365.699 254.286 368.066 254.286Z" fill="#1F2744"/>
<path fill-rule="evenodd" clip-rule="evenodd" d="M368.066 272.857C370.433 272.857 372.352 274.776 372.352 277.143L372.352 300C372.352 302.367 370.433 304.286 368.066 304.286C365.699 304.286 363.781 302.367 363.781 300L363.781 277.143C363.781 274.776 365.699 272.857 368.066 272.857Z" fill="#1F2744"/>
<path fill-rule="evenodd" clip-rule="evenodd" d="M349.495 272.857C351.862 272.857 353.781 274.776 353.781 277.143L353.781 300C353.781 302.367 351.862 304.286 349.495 304.286C347.128 304.286 345.21 302.367 345.21 300L345.21 277.143C345.21 274.776 347.128 272.857 349.495 272.857Z" fill="#1F2744"/>
<path fill-rule="evenodd" clip-rule="evenodd" d="M330.923 294.286C333.29 294.286 335.209 296.204 335.209 298.571L335.209 321.428C335.209 323.795 333.29 325.714 330.923 325.714C328.556 325.714 326.638 323.795 326.638 321.428L326.638 298.571C326.638 296.204 328.556 294.286 330.923 294.286Z" fill="#1F2744"/>
<path fill-rule="evenodd" clip-rule="evenodd" d="M312.352 294.286C314.719 294.286 316.638 296.204 316.638 298.571L316.638 321.428C316.638 323.795 314.719 325.714 312.352 325.714C309.986 325.714 308.067 323.795 308.067 321.428L308.067 298.571C308.067 296.204 309.986 294.286 312.352 294.286Z" fill="#1F2744"/>
<path fill-rule="evenodd" clip-rule="evenodd" d="M308.067 184.286C308.067 181.919 309.986 180 312.352 180C314.719 180 316.638 181.919 316.638 184.286V201.429V207.143V224.286V245.714V247.143V262.857V268.571V285.714V308.571C316.638 310.938 314.719 312.857 312.352 312.857C309.986 312.857 308.067 310.938 308.067 308.571V285.714C308.067 285.713 308.067 285.712 308.067 285.711V268.571L308.067 262.857L308.067 262.854V247.143L308.067 245.714L308.067 245.711V224.286V224.282V207.143L308.067 201.429L308.067 201.426L308.067 184.286Z" fill="#1F2744"/>
<path fill-rule="evenodd" clip-rule="evenodd" d="M288.066 237.143C288.066 234.776 289.985 232.857 292.352 232.857C294.719 232.857 296.638 234.776 296.638 237.143V254.286V260V277.143V298.572V300V321.429C296.638 323.796 294.719 325.714 292.352 325.714C289.985 325.714 288.066 323.796 288.066 321.429V300L288.066 298.572C288.066 298.57 288.066 298.569 288.066 298.568V277.143V277.14V260L288.066 254.286L288.066 254.283L288.066 237.143Z" fill="#1F2744"/>
<path fill-rule="evenodd" clip-rule="evenodd" d="M288.066 378.571C288.066 376.204 289.985 374.285 292.352 374.285C294.719 374.285 296.638 376.204 296.638 378.571V395.713V401.428V418.571V439.999V441.428V462.856C296.638 465.223 294.719 467.142 292.352 467.142C289.985 467.142 288.066 465.223 288.066 462.856V441.428L288.066 439.999C288.066 439.998 288.066 439.997 288.066 439.996V418.571V418.567V401.428L288.066 395.713L288.066 395.71L288.066 378.571Z" fill="#1F2744"/>
<path fill-rule="evenodd" clip-rule="evenodd" d="M288.066 299.999C288.066 297.632 289.985 295.714 292.352 295.714C294.719 295.714 296.638 297.632 296.638 299.999V317.142V322.856V339.999V361.428V362.856V384.285C296.638 386.652 294.719 388.571 292.352 388.571C289.985 388.571 288.066 386.652 288.066 384.285V362.856L288.066 361.428C288.066 361.427 288.066 361.426 288.066 361.424V339.999V339.996V322.856L288.066 317.142L288.066 317.139L288.066 299.999Z" fill="#1F2744"/>
<path d="M359.495 315.714H532.352V330H359.495V315.714Z" fill="white"/>
<path d="M312.352 338.57H576.638V481.427H312.352V338.57Z" fill="white"/>
<path fill-rule="evenodd" clip-rule="evenodd" d="M576.637 338.571H313.781V481.428H576.637V338.571ZM305.209 330V489.999H585.209V330H305.209Z" fill="#1F2744"/>
<path fill-rule="evenodd" clip-rule="evenodd" d="M528.066 317.142H360.923V330H528.066V317.142ZM352.352 308.571V338.571H536.638V308.571H352.352Z" fill="#1F2744"/>
<path fill-rule="evenodd" clip-rule="evenodd" d="M360.924 370C363.291 370 365.21 371.918 365.21 374.285L365.21 397.142C365.21 399.509 363.291 401.428 360.924 401.428C358.557 401.428 356.638 399.509 356.638 397.142L356.638 374.285C356.638 371.918 358.557 370 360.924 370Z" fill="#1F2744"/>
<path fill-rule="evenodd" clip-rule="evenodd" d="M360.924 417.142C363.291 417.142 365.21 419.06 365.21 421.427L365.21 444.284C365.21 446.651 363.291 448.57 360.924 448.57C358.557 448.57 356.638 446.651 356.638 444.284L356.638 421.427C356.638 419.06 358.557 417.142 360.924 417.142Z" fill="#1F2744"/>
<path fill-rule="evenodd" clip-rule="evenodd" d="M392.352 370C394.719 370 396.638 371.918 396.638 374.285L396.638 397.142C396.638 399.509 394.719 401.428 392.352 401.428C389.985 401.428 388.066 399.509 388.066 397.142L388.066 374.285C388.066 371.918 389.985 370 392.352 370Z" fill="#1F2744"/>
<path fill-rule="evenodd" clip-rule="evenodd" d="M392.352 417.142C394.719 417.142 396.638 419.06 396.638 421.427L396.638 444.284C396.638 446.651 394.719 448.57 392.352 448.57C389.985 448.57 388.066 446.651 388.066 444.284L388.066 421.427C388.066 419.06 389.985 417.142 392.352 417.142Z" fill="#1F2744"/>
<path fill-rule="evenodd" clip-rule="evenodd" d="M423.781 370C426.148 370 428.067 371.918 428.067 374.285L428.067 397.142C428.067 399.509 426.148 401.428 423.781 401.428C421.414 401.428 419.496 399.509 419.496 397.142L419.496 374.285C419.496 371.918 421.414 370 423.781 370Z" fill="#1F2744"/>
<path fill-rule="evenodd" clip-rule="evenodd" d="M423.781 417.142C426.148 417.142 428.067 419.06 428.067 421.427L428.067 444.284C428.067 446.651 426.148 448.57 423.781 448.57C421.414 448.57 419.496 446.651 419.496 444.284L419.496 421.427C419.496 419.06 421.414 417.142 423.781 417.142Z" fill="#1F2744"/>
<path fill-rule="evenodd" clip-rule="evenodd" d="M455.209 370C457.576 370 459.495 371.918 459.495 374.285L459.495 397.142C459.495 399.509 457.576 401.428 455.209 401.428C452.842 401.428 450.923 399.509 450.923 397.142L450.923 374.285C450.923 371.918 452.842 370 455.209 370Z" fill="#1F2744"/>
<path fill-rule="evenodd" clip-rule="evenodd" d="M455.209 417.142C457.576 417.142 459.495 419.06 459.495 421.427L459.495 444.284C459.495 446.651 457.576 448.57 455.209 448.57C452.842 448.57 450.923 446.651 450.923 444.284L450.923 421.427C450.923 419.06 452.842 417.142 455.209 417.142Z" fill="#1F2744"/>
<path fill-rule="evenodd" clip-rule="evenodd" d="M486.638 370C489.005 370 490.924 371.918 490.924 374.285L490.924 397.142C490.924 399.509 489.005 401.428 486.638 401.428C484.271 401.428 482.352 399.509 482.352 397.142L482.352 374.285C482.352 371.918 484.271 370 486.638 370Z" fill="#1F2744"/>
<path fill-rule="evenodd" clip-rule="evenodd" d="M486.638 417.142C489.005 417.142 490.924 419.06 490.924 421.427L490.924 444.284C490.924 446.651 489.005 448.57 486.638 448.57C484.271 448.57 482.352 446.651 482.352 444.284L482.352 421.427C482.352 419.06 484.271 417.142 486.638 417.142Z" fill="#1F2744"/>
<path fill-rule="evenodd" clip-rule="evenodd" d="M518.066 370C520.433 370 522.352 371.918 522.352 374.285L522.352 397.142C522.352 399.509 520.433 401.428 518.066 401.428C515.699 401.428 513.78 399.509 513.78 397.142L513.78 374.285C513.78 371.918 515.699 370 518.066 370Z" fill="#1F2744"/>
<path fill-rule="evenodd" clip-rule="evenodd" d="M518.066 417.142C520.433 417.142 522.352 419.06 522.352 421.427L522.352 444.284C522.352 446.651 520.433 448.57 518.066 448.57C515.699 448.57 513.78 446.651 513.78 444.284L513.78 421.427C513.78 419.06 515.699 417.142 518.066 417.142Z" fill="#1F2744"/>
<path d="M556.638 419.285C556.638 399.955 572.308 384.285 591.638 384.285H595.923C615.253 384.285 630.923 399.955 630.923 419.285V423.57C630.923 442.9 615.253 458.57 595.923 458.57H591.638C572.308 458.57 556.638 442.9 556.638 423.57V419.285Z" fill="white"/>
<path fill-rule="evenodd" clip-rule="evenodd" d="M589.495 458.398L589.495 407.142C589.495 404.775 591.414 402.857 593.781 402.857C596.147 402.857 598.066 404.775 598.066 407.142V438.571L606.464 430.173C608.138 428.499 610.852 428.499 612.525 430.173C614.199 431.846 614.199 434.56 612.525 436.234L598.586 450.173C598.422 450.337 598.248 450.485 598.066 450.617V458.231C615.819 455.794 629.495 440.565 629.495 422.142C629.495 402.023 613.185 385.714 593.066 385.714C572.947 385.714 556.638 402.023 556.638 422.142C556.638 441.056 571.052 456.603 589.495 458.398ZM589.495 467.003C566.312 465.182 548.066 445.793 548.066 422.142C548.066 397.289 568.213 377.142 593.066 377.142C617.919 377.142 638.066 397.289 638.066 422.142C638.066 445.305 620.566 464.38 598.066 466.868V485.714C598.066 488.081 596.147 489.999 593.781 489.999C591.414 489.999 589.495 488.081 589.495 485.714V467.003Z" fill="#1F2744"/>
<path d="M649.494 419.285C649.494 399.955 665.164 384.285 684.494 384.285H688.78C708.11 384.285 723.78 399.955 723.78 419.285V423.57C723.78 442.9 708.11 458.57 688.78 458.57H684.494C665.164 458.57 649.494 442.9 649.494 423.57V419.285Z" fill="white"/>
<path fill-rule="evenodd" clip-rule="evenodd" d="M682.351 458.398L682.352 407.142C682.352 404.775 684.27 402.857 686.637 402.857C689.004 402.857 690.923 404.775 690.923 407.142V438.571L699.321 430.173C700.995 428.499 703.708 428.499 705.382 430.173C707.056 431.846 707.056 434.56 705.382 436.234L691.443 450.173C691.279 450.337 691.105 450.485 690.923 450.617V458.231C708.676 455.794 722.351 440.565 722.351 422.142C722.351 402.023 706.042 385.714 685.923 385.714C665.804 385.714 649.494 402.023 649.494 422.142C649.494 441.056 663.909 456.603 682.351 458.398ZM682.351 467.003C659.168 465.182 640.923 445.793 640.923 422.142C640.923 397.289 661.07 377.142 685.923 377.142C710.776 377.142 730.923 397.289 730.923 422.142C730.923 445.305 713.423 464.38 690.923 466.868V485.714C690.923 488.081 689.004 489.999 686.637 489.999C684.27 489.999 682.351 488.081 682.351 485.714V467.003Z" fill="#1F2744"/>
<path d="M742.351 419.285C742.351 399.955 758.021 384.285 777.351 384.285H781.637C800.967 384.285 816.637 399.955 816.637 419.285V423.57C816.637 442.9 800.967 458.57 781.637 458.57H777.351C758.021 458.57 742.351 442.9 742.351 423.57V419.285Z" fill="white"/>
<path fill-rule="evenodd" clip-rule="evenodd" d="M775.209 458.398L775.209 407.142C775.209 404.775 777.128 402.857 779.495 402.857C781.861 402.857 783.78 404.775 783.78 407.142V438.571L792.178 430.173C793.852 428.499 796.566 428.499 798.239 430.173C799.913 431.846 799.913 434.56 798.239 436.234L784.3 450.173C784.136 450.337 783.962 450.485 783.78 450.617V458.231C801.533 455.794 815.209 440.565 815.209 422.142C815.209 402.023 798.899 385.714 778.78 385.714C758.661 385.714 742.352 402.023 742.352 422.142C742.352 441.056 756.766 456.603 775.209 458.398ZM775.209 467.003C752.026 465.182 733.78 445.793 733.78 422.142C733.78 397.289 753.927 377.142 778.78 377.142C803.633 377.142 823.78 397.289 823.78 422.142C823.78 445.305 806.28 464.38 783.78 466.868V485.714C783.78 488.081 781.861 489.999 779.495 489.999C777.128 489.999 775.209 488.081 775.209 485.714V467.003Z" fill="#1F2744"/>
<path fill-rule="evenodd" clip-rule="evenodd" d="M0 485.5C0 481 3 481.5 7.5 481.5L1062.76 481C1068 481 1071 481 1071 485.46C1071 489.919 1068 489.919 1062.76 489.919L8 490C3 490 0 490 0 485.5Z" fill="#1F2744"/>
<path fill-rule="evenodd" clip-rule="evenodd" d="M143.781 371.428C146.147 371.428 148.066 373.347 148.066 375.714L148.066 485.714C148.066 488.081 146.147 490 143.781 490C141.414 490 139.495 488.081 139.495 485.714L139.495 375.714C139.495 373.347 141.414 371.428 143.781 371.428Z" fill="#1F2744"/>
<path fill-rule="evenodd" clip-rule="evenodd" d="M159.668 405.887C161.342 407.561 161.342 410.275 159.668 411.948L148.586 423.03C146.913 424.704 144.199 424.704 142.525 423.03C140.852 421.356 140.852 418.643 142.525 416.969L153.607 405.887C155.281 404.214 157.994 404.214 159.668 405.887Z" fill="#1F2744"/>
<path fill-rule="evenodd" clip-rule="evenodd" d="M145.036 388.744C143.362 390.418 140.649 390.418 138.975 388.744L127.893 377.662C126.219 375.989 126.219 373.275 127.893 371.601C129.567 369.928 132.28 369.928 133.954 371.601L145.036 382.683C146.71 384.357 146.71 387.071 145.036 388.744Z" fill="#1F2744"/>
<path fill-rule="evenodd" clip-rule="evenodd" d="M182.966 250.062L184.142 245.03C184.839 242.043 185.21 238.926 185.21 235.714C185.21 212.948 166.457 194.285 143.067 194.285C119.677 194.285 100.924 212.948 100.924 235.714C100.924 238.926 101.294 242.043 101.992 245.03L103.167 250.062L99.265 253.451C85.369 265.518 76.6382 283.183 76.6382 302.857C76.6382 309.085 77.5117 315.098 79.1391 320.788L80.2635 324.72L77.9152 328.067C69.0009 340.775 63.7811 356.201 63.7811 372.857C63.7811 416.184 99.2124 451.428 143.067 451.428C186.921 451.428 222.352 416.184 222.352 372.857C222.352 356.201 217.133 340.775 208.218 328.067L205.87 324.72L206.994 320.788C208.622 315.098 209.495 309.085 209.495 302.857C209.495 283.183 200.764 265.518 186.868 253.451L182.966 250.062ZM215.235 323.145C225.126 337.244 230.924 354.379 230.924 372.857C230.924 420.984 191.589 459.999 143.067 459.999C94.5446 459.999 55.2097 420.984 55.2097 372.857C55.2097 354.379 61.0079 337.244 70.8981 323.145C69.0538 316.696 68.0668 309.891 68.0668 302.857C68.0668 280.581 77.966 260.595 93.6449 246.979C92.7993 243.358 92.3525 239.588 92.3525 235.714C92.3525 208.1 115.058 185.714 143.067 185.714C171.075 185.714 193.781 208.1 193.781 235.714C193.781 239.588 193.334 243.358 192.489 246.979C208.167 260.595 218.067 280.581 218.067 302.857C218.067 309.891 217.08 316.696 215.235 323.145Z" fill="#1F2744"/>
<path d="M256.638 419.999C256.638 441.302 239.369 458.571 218.067 458.571C196.764 458.571 179.495 441.302 179.495 419.999C179.495 398.697 196.764 381.428 218.067 381.428C239.369 381.428 256.638 398.697 256.638 419.999Z" fill="white"/>
<path fill-rule="evenodd" clip-rule="evenodd" d="M213.781 458.398L213.781 407.142C213.781 404.775 215.7 402.857 218.067 402.857C220.433 402.857 222.352 404.775 222.352 407.142V438.571L230.75 430.173C232.424 428.499 235.138 428.499 236.811 430.173C238.485 431.846 238.485 434.56 236.811 436.234L222.872 450.173C222.708 450.337 222.534 450.485 222.352 450.617V458.231C240.105 455.794 253.781 440.565 253.781 422.142C253.781 402.023 237.471 385.714 217.352 385.714C197.233 385.714 180.924 402.023 180.924 422.142C180.924 441.056 195.338 456.603 213.781 458.398ZM213.781 467.003C190.598 465.182 172.352 445.793 172.352 422.142C172.352 397.289 192.499 377.142 217.352 377.142C242.205 377.142 262.352 397.289 262.352 422.142C262.352 445.305 244.852 464.38 222.352 466.868V485.714C222.352 488.081 220.433 489.999 218.066 489.999C215.7 489.999 213.781 488.081 213.781 485.714V467.003Z" fill="#1F2744"/>
</svg>
