<svg xmlns="http://www.w3.org/2000/svg" width="171.775" height="187.406" viewBox="0 0 171.775 187.406"><g transform="translate(-0.02)"><path d="M160.908,135.666,150.6,128.592a3.126,3.126,0,0,0-4.345.806L118.3,170.084l-10.774-10.773a3.125,3.125,0,0,0-4.416,0l-8.833,8.833a3.123,3.123,0,0,0,0,4.416l24.049,24.048a3.118,3.118,0,0,0,2.207.915h.285a3.116,3.116,0,0,0,2.289-1.342l38.61-56.17a3.126,3.126,0,0,0-.806-4.345ZM120.1,189.535l-19.186-19.182,4.416-4.416,11.221,11.221a3.062,3.062,0,0,0,2.5.9,3.116,3.116,0,0,0,2.289-1.342l28.33-41.207,5.147,3.536Zm0,0" transform="translate(-59.178 -81.18)" fill="#f2664f"/><path d="M162.424,112.449H131.193V21.878a9.369,9.369,0,0,0-9.37-9.37H80.91a15.616,15.616,0,0,0-30.608,0H9.39a9.37,9.37,0,0,0-9.37,9.37V162.421a9.37,9.37,0,0,0,9.37,9.369H74.976v6.246a9.369,9.369,0,0,0,9.37,9.37h78.079a9.369,9.369,0,0,0,9.37-9.37V121.819A9.369,9.369,0,0,0,162.424,112.449ZM124.947,21.878v90.571H118.7V28.124A3.123,3.123,0,0,0,115.577,25H96.838V18.754h24.985A3.123,3.123,0,0,1,124.947,21.878Zm-40.6,90.571a9.369,9.369,0,0,0-9.37,9.37v31.231H18.76V31.247h16.19a9.371,9.371,0,0,0,8.8,6.246H87.468a9.368,9.368,0,0,0,8.8-6.246h16.191v81.2ZM65.607,6.262A9.367,9.367,0,0,1,74.4,12.508H56.812A9.368,9.368,0,0,1,65.607,6.262ZM90.592,18.754v9.37a3.123,3.123,0,0,1-3.124,3.122H43.745a3.123,3.123,0,0,1-3.124-3.122v-9.37ZM9.39,165.543a3.123,3.123,0,0,1-3.122-3.122V21.878A3.123,3.123,0,0,1,9.39,18.754H34.375V25H15.636a3.123,3.123,0,0,0-3.122,3.124v128.05a3.123,3.123,0,0,0,3.122,3.122h59.34v6.246Zm156.159,12.492a3.123,3.123,0,0,1-3.124,3.124H84.346a3.123,3.123,0,0,1-3.124-3.124V121.819a3.123,3.123,0,0,1,3.124-3.124h78.079a3.123,3.123,0,0,1,3.124,3.124Zm0,0" fill="#f2664f"/><path d="M385.693,341.375H373.2a6.247,6.247,0,0,0-6.246,6.246v18.74a6.247,6.247,0,0,0,6.246,6.246h12.494a6.246,6.246,0,0,0,6.246-6.246v-18.74A6.246,6.246,0,0,0,385.693,341.375ZM373.2,366.361v-18.74h12.494v18.74Zm0,0" transform="translate(-232.637 -216.433)" fill="#f2664f"/><path d="M273.308,375.508H242.077a3.123,3.123,0,1,0,0,6.246h31.231a3.123,3.123,0,1,0,0-6.246Zm0,0" transform="translate(-151.485 -238.073)" fill="#f2664f"/><path d="M273.308,409.645H242.077a3.123,3.123,0,1,0,0,6.246h31.231a3.123,3.123,0,1,0,0-6.246Zm0,0" transform="translate(-151.485 -259.716)" fill="#f2664f"/><path d="M254.569,443.777H242.077a3.123,3.123,0,1,0,0,6.246h12.492a3.123,3.123,0,1,0,0-6.246Zm0,0" transform="translate(-151.485 -281.357)" fill="#f2664f"/></g></svg>