<svg xmlns="http://www.w3.org/2000/svg" xmlns:xlink="http://www.w3.org/1999/xlink" width="21" height="21" viewBox="0 0 21 21">
  <defs>
    <clipPath id="clip-path">
      <rect id="Rectangle_172" data-name="Rectangle 172" width="21" height="21" transform="translate(39.75 606)" fill="rgba(0,0,0,0.4)"/>
    </clipPath>
  </defs>
  <g id="User" transform="translate(-39.75 -606)" clip-path="url(#clip-path)">
    <path id="person_24dp_E8EAED_FILL0_wght200_GRAD0_opsz24" d="M18-18.923a4.333,4.333,0,0,1-3.178-1.322A4.333,4.333,0,0,1,13.5-23.423,4.333,4.333,0,0,1,14.822-26.6,4.333,4.333,0,0,1,18-27.923,4.333,4.333,0,0,1,21.178-26.6,4.333,4.333,0,0,1,22.5-23.423a4.333,4.333,0,0,1-1.322,3.178A4.333,4.333,0,0,1,18-18.923ZM7.5-8.077v-2.469a3.071,3.071,0,0,1,.541-1.738A3.636,3.636,0,0,1,9.5-13.541a21.3,21.3,0,0,1,4.249-1.527,18.042,18.042,0,0,1,8.509,0A21.3,21.3,0,0,1,26.5-13.541a3.636,3.636,0,0,1,1.455,1.256,3.071,3.071,0,0,1,.541,1.738v2.469ZM9-9.577H27v-.969a1.556,1.556,0,0,0-.322-.937,2.586,2.586,0,0,0-.89-.741A19.037,19.037,0,0,0,21.97-13.6a16.744,16.744,0,0,0-7.939,0,19.037,19.037,0,0,0-3.819,1.374,2.586,2.586,0,0,0-.89.741A1.556,1.556,0,0,0,9-10.546Zm9-10.846a2.889,2.889,0,0,0,2.119-.881A2.889,2.889,0,0,0,21-23.423a2.889,2.889,0,0,0-.881-2.119A2.889,2.889,0,0,0,18-26.423a2.889,2.889,0,0,0-2.119.881A2.889,2.889,0,0,0,15-23.423a2.889,2.889,0,0,0,.881,2.119A2.889,2.889,0,0,0,18-20.423ZM18-23.423ZM18-9.577Z" transform="translate(32.25 634.5)" fill="rgba(0,0,0,0.4)"/>
  </g>
</svg>
