<svg id="Autres_cartes" data-name="Autres cartes" xmlns="http://www.w3.org/2000/svg" width="153.282" height="66.335" viewBox="0 0 153.282 66.335">
  <g id="Code_barre" data-name="Code barre" transform="matrix(0.996, 0.087, -0.087, 0.996, 62.778, 0)">
    <rect id="Rectangle_242" data-name="Rectangle 242" width="89" height="57" rx="7" transform="translate(0.924 0.36)" fill="#d5d5d5"/>
    <path id="Carte" d="M8.259,1.652A6.615,6.615,0,0,0,1.652,8.259V50.381a6.615,6.615,0,0,0,6.607,6.607H82.591A6.615,6.615,0,0,0,89.2,50.381V8.259a6.615,6.615,0,0,0-6.607-6.607H8.259M8.259,0H82.591A8.259,8.259,0,0,1,90.85,8.259V50.381a8.259,8.259,0,0,1-8.259,8.259H8.259A8.259,8.259,0,0,1,0,50.381V8.259A8.259,8.259,0,0,1,8.259,0Z"/>
    <g id="Groupe_11" data-name="Groupe 11" transform="translate(12.217 15.82)">
      <path id="Union_9" data-name="Union 9" d="M-24.061-336.79v-21h.768v21Zm-1.536,0v-21h.768v21Zm-3.074,0v-21h1.537v21Zm-2.3,0v-21h.768v21Zm-1.536,0v-21h.768v21Zm-5.378,0v-21h3.842v21Zm-3.073,0v-21h2.3v21Zm-4.61,0v-21h3.841v21Zm-3.074,0v-21h1.537v21Zm-2.3,0v-21h.768v21Zm-4.61,0v-21h3.074v21Zm-3.841,0v-21h2.3v21Zm-1.536,0v-21h.768v21Zm-3.074,0v-21h1.536v21Zm-2.3,0v-21h.768v21Zm-1.536,0v-21h.768v21Zm-5.378,0v-21h3.841v21Zm-1.536,0v-21H-74v21Zm-3.074,0v-21h1.536v21Zm-3.073,0v-21h1.536v21Zm-5.378,0v-21h3.842v21Z" transform="translate(96 360.79)"/>
    </g>
  </g>
  <g id="Immatriculation" transform="translate(32.475 3.848)">
    <rect id="Rectangle_243" data-name="Rectangle 243" width="89" height="57" rx="7" transform="translate(1.166 0.36)" fill="#ededed"/>
    <path id="Carte-2" data-name="Carte" d="M8.259,1.652A6.615,6.615,0,0,0,1.652,8.259V50.381a6.615,6.615,0,0,0,6.607,6.607H82.591A6.615,6.615,0,0,0,89.2,50.381V8.259a6.615,6.615,0,0,0-6.607-6.607H8.259M8.259,0H82.591A8.259,8.259,0,0,1,90.85,8.259V50.381a8.259,8.259,0,0,1-8.259,8.259H8.259A8.259,8.259,0,0,1,0,50.381V8.259A8.259,8.259,0,0,1,8.259,0Z"/>
    <g id="license-plate_6903868" transform="translate(27.779 16.156)">
      <path id="Tracé_120" data-name="Tracé 120" d="M310.972,159.459a.727.727,0,0,1-.727-.727v-9.945a2.085,2.085,0,0,0-2.082-2.082H290.977a.727.727,0,0,1,0-1.455h17.185a3.541,3.541,0,0,1,3.537,3.537v9.945A.727.727,0,0,1,310.972,159.459Z" transform="translate(-254.407 -145.25)"/>
      <path id="Tracé_121" data-name="Tracé 121" d="M59.82,171.578H10.972a4.226,4.226,0,0,1-4.222-4.222V149.472a4.226,4.226,0,0,1,4.222-4.222H35.4a.868.868,0,1,1,0,1.736H10.972a2.488,2.488,0,0,0-2.485,2.485v17.885a2.488,2.488,0,0,0,2.485,2.485H59.82a2.488,2.488,0,0,0,2.485-2.485v-2.1a.868.868,0,0,1,1.736,0v2.1A4.226,4.226,0,0,1,59.82,171.578Z" transform="translate(-6.75 -145.25)"/>
      <path id="Tracé_122" data-name="Tracé 122" d="M87.536,195.959h-49.9a.9.9,0,0,1-.887-.916V184.4a.887.887,0,1,1,1.773,0v9.725H86.649V177.082H38.523v3.19a.887.887,0,1,1-1.773,0v-4.106a.9.9,0,0,1,.887-.916h49.9a.9.9,0,0,1,.887.916v18.877A.9.9,0,0,1,87.536,195.959Z" transform="translate(-33.94 -172.44)"/>
      <path id="Ellipse_17" data-name="Ellipse 17" transform="translate(6.403 7.561)"/>
      <path id="Ellipse_18" data-name="Ellipse 18" transform="translate(6.403 18.857)"/>
      <path id="Ellipse_19" data-name="Ellipse 19" transform="translate(50.766 7.561)"/>
      <path id="Ellipse_20" data-name="Ellipse 20" transform="translate(50.766 18.857)"/>
      <g id="Groupe_121" data-name="Groupe 121" transform="translate(17.205 9.861)">
        <g id="Groupe_115" data-name="Groupe 115" transform="translate(0 0)">
          <path id="Tracé_123" data-name="Tracé 123" d="M84.571,234.356a.728.728,0,0,1-.68-.986l1.923-5.049a.886.886,0,0,1,1.657,0l1.905,5.048a.727.727,0,1,1-1.361.514L86.64,230.24l-1.389,3.647A.728.728,0,0,1,84.571,234.356Z" transform="translate(-83.844 -227.75)"/>
          <path id="Ligne_17" data-name="Ligne 17" d="M2.888.7H-.023A.727.727,0,0,1-.75-.023.727.727,0,0,1-.023-.75H2.888a.727.727,0,0,1,.727.727A.727.727,0,0,1,2.888.7Z" transform="translate(1.362 4.618)"/>
        </g>
        <g id="Groupe_116" data-name="Groupe 116" transform="translate(6.831 0)">
          <path id="Tracé_124" data-name="Tracé 124" d="M157.508,227.75h1.5a1.914,1.914,0,0,1,0,3.828h-1.5a.727.727,0,0,1-.727-.727v-2.374A.727.727,0,0,1,157.508,227.75Zm1.5,2.374a.46.46,0,0,0,0-.919h-.77v.919Z" transform="translate(-156.781 -227.75)"/>
          <path id="Tracé_125" data-name="Tracé 125" d="M157.509,253.1h1.759a2.116,2.116,0,0,1,0,4.232h-1.759a.727.727,0,0,1-.727-.727v-2.777A.727.727,0,0,1,157.509,253.1Zm1.759,2.777a.661.661,0,0,0,0-1.322h-1.031v1.322Z" transform="translate(-156.782 -250.724)"/>
        </g>
        <g id="Groupe_117" data-name="Groupe 117" transform="translate(12.487 0)">
          <path id="Tracé_126" data-name="Tracé 126" d="M220.479,234.355a3.3,3.3,0,1,1,1.847-6.041.727.727,0,1,1-.814,1.205,1.848,1.848,0,1,0-1.033,3.381,1.3,1.3,0,0,0,1.065-.467.727.727,0,1,1,1.115.935,2.754,2.754,0,0,1-2.18.987Z" transform="translate(-217.176 -227.75)"/>
        </g>
        <g id="Groupe_118" data-name="Groupe 118" transform="translate(18.806 0.016)">
          <path id="Tracé_127" data-name="Tracé 127" d="M286.469,234.494a.727.727,0,0,1-.727-.727v-4.392h-.367a.727.727,0,1,1,0-1.455h1.094a.727.727,0,0,1,.727.727v5.119A.727.727,0,0,1,286.469,234.494Z" transform="translate(-284.648 -227.92)"/>
        </g>
        <g id="Groupe_119" data-name="Groupe 119" transform="translate(22.738 0.016)">
          <path id="Tracé_128" data-name="Tracé 128" d="M330.129,234.494h-2.566a.727.727,0,0,1-.594-1.146l1.787-2.534c.366-.553.453-.761.419-1.01a.525.525,0,0,0-.547-.429.562.562,0,0,0-.551.452.727.727,0,1,1-1.427-.28,2.019,2.019,0,0,1,1.978-1.626,1.989,1.989,0,0,1,1.989,1.691,2.826,2.826,0,0,1-.655,2.016l-.012.017-.984,1.4h1.164a.727.727,0,0,1,0,1.455Z" transform="translate(-326.635 -227.92)"/>
        </g>
        <g id="Groupe_120" data-name="Groupe 120" transform="translate(28.222 0)">
          <path id="Ligne_18" data-name="Ligne 18" d="M3.6,5.856a.726.726,0,0,1-.6-.309L-.618.4A.727.727,0,0,1-.441-.618.727.727,0,0,1,.572-.441L4.2,4.71A.727.727,0,0,1,3.6,5.856Z" transform="translate(1.01 0.75)"/>
          <path id="Ligne_19" data-name="Ligne 19" d="M-.023,5.856a.724.724,0,0,1-.418-.133A.727.727,0,0,1-.617,4.709L3.011-.442A.727.727,0,0,1,4.025-.617.727.727,0,0,1,4.2.4L.572,5.547A.726.726,0,0,1-.023,5.856Z" transform="translate(0.75 0.75)"/>
        </g>
      </g>
    </g>
  </g>
  <g id="QR" transform="matrix(0.996, -0.087, 0.087, 0.996, 0, 7.918)">
    <rect id="Rectangle_244" data-name="Rectangle 244" width="89" height="57" rx="7" transform="translate(1.35 0.36)" fill="#fff"/>
    <path id="Carte-3" data-name="Carte" d="M8.259,1.652A6.615,6.615,0,0,0,1.652,8.259V50.381a6.615,6.615,0,0,0,6.607,6.607H82.591A6.615,6.615,0,0,0,89.2,50.381V8.259a6.615,6.615,0,0,0-6.607-6.607H8.259M8.259,0H82.591A8.259,8.259,0,0,1,90.85,8.259V50.381a8.259,8.259,0,0,1-8.259,8.259H8.259A8.259,8.259,0,0,1,0,50.381V8.259A8.259,8.259,0,0,1,8.259,0Z"/>
    <path id="Icon_material-qr-code-2" data-name="Icon material-qr-code-2" d="M22.5,31.5h-3v-3h3ZM19.5,21h-3v7.5h3Zm12-3h-3v6h3Zm-3-3h-3v3h3Zm-18,3h-3v3h3Zm-3-3h-3v3h3ZM18,7.5h3v-3H18ZM6.75,6.75v4.5h4.5V6.75ZM13.5,13.5h-9v-9h9ZM6.75,24.75v4.5h4.5v-4.5ZM13.5,31.5h-9v-9h9ZM24.75,6.75v4.5h4.5V6.75ZM31.5,13.5h-9v-9h9Zm-3,15V24h-6v3h3v4.5h6v-3ZM25.5,18h-6v3h6Zm-6-3h-9v3h3v3h3V18h3ZM21,13.5v-3H18v-3H15v6ZM10.125,7.875H7.875v2.25h2.25Zm0,18H7.875v2.25h2.25Zm18-18h-2.25v2.25h2.25Z" transform="translate(52.425 11.32)"/>
  </g>
</svg>
