<svg xmlns="http://www.w3.org/2000/svg" width="30" height="25.842" viewBox="0 0 30 25.842">
  <g id="Carte" transform="translate(-148 -191.544)">
    <path id="credit_score_24dp_E8EAED_FILL0_wght200_GRAD0_opsz24" d="M14.968-77.932h26.61v-3.646a.978.978,0,0,0-.32-.7.978.978,0,0,0-.7-.32H15.992a.978.978,0,0,0-.7.32.978.978,0,0,0-.32.7ZM13.3-81.577a2.6,2.6,0,0,1,.769-1.918,2.6,2.6,0,0,1,1.918-.769H40.554a2.6,2.6,0,0,1,1.918.769,2.6,2.6,0,0,1,.769,1.918v7.612H14.968v10.3a.978.978,0,0,0,.32.7.978.978,0,0,0,.7.32h7.746v1.663H15.992a2.6,2.6,0,0,1-1.918-.769,2.6,2.6,0,0,1-.769-1.918ZM32.667-58.422,26.75-64.339l1.177-1.177,4.74,4.721,9.461-9.461,1.177,1.2L32.667-58.422Zm-17.7-23.155v17.91a.978.978,0,0,0,.32.7.978.978,0,0,0,.7.32H14.968V-82.6h1.024a.978.978,0,0,0-.7.32A.978.978,0,0,0,14.968-81.577Z" transform="translate(134.695 275.808)" fill="#f2664f"/>
  </g>
</svg>
