<svg xmlns="http://www.w3.org/2000/svg" width="21" height="19.178" viewBox="0 0 21 19.178">
  <g id="Imprimante" transform="translate(-24 -8.911)">
    <path id="print_24dp_E8EAED_FILL0_wght200_GRAD0_opsz24" d="M19.945-19.178v-3.74H9.973v3.74H8.726v-4.987H21.192v4.987ZM5.706-17.932h0Zm16.254,3.116a1.206,1.206,0,0,0,.888-.358,1.206,1.206,0,0,0,.358-.888,1.206,1.206,0,0,0-.358-.888,1.206,1.206,0,0,0-.888-.358,1.206,1.206,0,0,0-.888.358,1.206,1.206,0,0,0-.358.888,1.206,1.206,0,0,0,.358.888A1.206,1.206,0,0,0,21.959-14.815ZM19.945-6.233v-5.658H9.973v5.658Zm1.247,1.247H8.726V-9.973H4.459v-6.712a2.409,2.409,0,0,1,.719-1.776,2.415,2.415,0,0,1,1.774-.717H22.966a2.412,2.412,0,0,1,1.776.717,2.412,2.412,0,0,1,.717,1.776v6.712H21.192Zm3.02-6.233v-5.466a1.206,1.206,0,0,0-.358-.888,1.206,1.206,0,0,0-.888-.358H6.952a1.206,1.206,0,0,0-.888.358,1.206,1.206,0,0,0-.358.888v5.466h3.02v-1.918H21.192v1.918Z" transform="translate(19.541 33.076)" fill="#9a9a9a"/>
  </g>
</svg>
