<svg xmlns="http://www.w3.org/2000/svg" xmlns:xlink="http://www.w3.org/1999/xlink" width="21" height="21" viewBox="0 0 21 21">
  <defs>
    <clipPath id="clip-path">
      <rect id="Rectangle_6" data-name="Rectangle 6" width="21" height="21" transform="translate(20 20)" fill="rgba(0,0,0,0.4)"/>
    </clipPath>
  </defs>
  <g id="Info" transform="translate(-20 -20)" clip-path="url(#clip-path)">
    <path id="info_24dp_E8EAED_FILL0_wght200_GRAD0_opsz24" d="M13.417-8.75h1.167v-6.417H13.417ZM14-16.827a.7.7,0,0,0,.512-.206.7.7,0,0,0,.207-.512.7.7,0,0,0-.207-.512A.7.7,0,0,0,14-18.263a.7.7,0,0,0-.512.206.7.7,0,0,0-.207.512.7.7,0,0,0,.207.512A.7.7,0,0,0,14-16.827ZM14-3.5a10.234,10.234,0,0,1-4.1-.827A10.612,10.612,0,0,1,6.573-6.57,10.6,10.6,0,0,1,4.327-9.9,10.211,10.211,0,0,1,3.5-14a10.234,10.234,0,0,1,.827-4.1A10.612,10.612,0,0,1,6.57-21.427,10.6,10.6,0,0,1,9.9-23.673,10.211,10.211,0,0,1,14-24.5a10.234,10.234,0,0,1,4.1.827,10.612,10.612,0,0,1,3.335,2.243A10.6,10.6,0,0,1,23.673-18.1,10.211,10.211,0,0,1,24.5-14a10.234,10.234,0,0,1-.827,4.1A10.612,10.612,0,0,1,21.43-6.573,10.6,10.6,0,0,1,18.1-4.327,10.211,10.211,0,0,1,14-3.5Zm0-1.167a9.008,9.008,0,0,0,6.621-2.713A9.008,9.008,0,0,0,23.333-14a9.008,9.008,0,0,0-2.712-6.621A9.008,9.008,0,0,0,14-23.333a9.008,9.008,0,0,0-6.621,2.712A9.008,9.008,0,0,0,4.667-14,9.008,9.008,0,0,0,7.379-7.379,9.008,9.008,0,0,0,14-4.667ZM14-14Z" transform="translate(16.5 44.5)" fill="rgba(0,0,0,0.4)"/>
  </g>
</svg>
