<svg xmlns="http://www.w3.org/2000/svg" xmlns:xlink="http://www.w3.org/1999/xlink" width="21" height="21" viewBox="0 0 21 21">
  <defs>
    <clipPath id="clip-path">
      <rect id="Rectangle_7" data-name="Rectangle 7" width="21" height="21" transform="translate(39.75 606)" fill="#fff"/>
    </clipPath>
  </defs>
  <g id="Matière_blanc" data-name="Matière blanc" transform="translate(-39.75 -606)" clip-path="url(#clip-path)">
    <path id="deployed_code_24dp_E8EAED_FILL0_wght200_GRAD0_opsz24" d="M13.562-5.055v-8.759L5.9-18.252V-9.9a.674.674,0,0,0,.091.34.776.776,0,0,0,.272.272Zm1.179,0,7.3-4.234a.776.776,0,0,0,.272-.272.674.674,0,0,0,.091-.34v-8.35l-7.665,4.438v8.759Zm-.59-9.772,7.577-4.379-7.214-4.175a.681.681,0,0,0-.363-.113.681.681,0,0,0-.363.113L6.574-19.206l7.577,4.379ZM5.67-8.246a1.855,1.855,0,0,1-.7-.7,1.878,1.878,0,0,1-.253-.953v-8.513a1.878,1.878,0,0,1,.253-.953,1.855,1.855,0,0,1,.7-.7L13.2-24.4a1.885,1.885,0,0,1,.953-.256,1.885,1.885,0,0,1,.953.256l7.529,4.338a1.855,1.855,0,0,1,.7.7,1.878,1.878,0,0,1,.253.953v8.513a1.878,1.878,0,0,1-.253.953,1.855,1.855,0,0,1-.7.7L15.1-3.908a1.885,1.885,0,0,1-.953.256,1.885,1.885,0,0,1-.953-.256ZM14.151-14.151Z" transform="translate(36.099 630.651)" fill="#fff"/>
  </g>
</svg>
