<svg xmlns="http://www.w3.org/2000/svg" xmlns:xlink="http://www.w3.org/1999/xlink" width="21" height="21" viewBox="0 0 21 21">
  <defs>
    <clipPath id="clip-path">
      <rect id="Rectangle_11" data-name="Rectangle 11" width="21" height="21" transform="translate(36.5 15)" fill="rgba(0,0,0,0.4)"/>
    </clipPath>
  </defs>
  <g id="Photo" transform="translate(-36.5 -15)" clip-path="url(#clip-path)">
    <path id="add_a_photo_24dp_E8EAED_FILL0_wght200_GRAD0_opsz24" d="M11.55-11.55ZM3.8-4.2a1.643,1.643,0,0,1-1.211-.486A1.643,1.643,0,0,1,2.1-5.9V-17.2a1.643,1.643,0,0,1,.486-1.211A1.643,1.643,0,0,1,3.8-18.9H6.9L8.844-21H14.3v1.05h-5l-1.936,2.1H3.8a.63.63,0,0,0-.465.182.63.63,0,0,0-.182.465V-5.9a.63.63,0,0,0,.182.465A.63.63,0,0,0,3.8-5.25H19.3a.63.63,0,0,0,.465-.182A.63.63,0,0,0,19.95-5.9v-8.4H21v8.4a1.643,1.643,0,0,1-.486,1.211A1.643,1.643,0,0,1,19.3-4.2ZM19.95-17.85v-2.1h-2.1V-21h2.1v-2.1H21V-21h2.1v1.05H21v2.1ZM11.55-7.633a3.783,3.783,0,0,0,2.781-1.136,3.783,3.783,0,0,0,1.136-2.781,3.783,3.783,0,0,0-1.136-2.781,3.783,3.783,0,0,0-2.781-1.136,3.783,3.783,0,0,0-2.781,1.136A3.783,3.783,0,0,0,7.633-11.55,3.783,3.783,0,0,0,8.769-8.769,3.783,3.783,0,0,0,11.55-7.633Zm0-1.05A2.776,2.776,0,0,1,9.5-9.5a2.776,2.776,0,0,1-.822-2.045A2.776,2.776,0,0,1,9.5-13.6a2.776,2.776,0,0,1,2.045-.822A2.776,2.776,0,0,1,13.6-13.6a2.776,2.776,0,0,1,.822,2.045A2.776,2.776,0,0,1,13.6-9.5a2.776,2.776,0,0,1-2.045.822Z" transform="translate(34.4 39.15)" fill="rgba(0,0,0,0.4)"/>
  </g>
</svg>
