<svg xmlns="http://www.w3.org/2000/svg" width="71.283" height="43.076" viewBox="0 0 71.283 43.076">
  <g id="Picto_dépôt" data-name="Picto dépôt" transform="translate(0 -69.5)">
    <g id="trailer_1580187" transform="translate(0 69.5)">
      <path id="Tracé_17" data-name="Tracé 17" d="M362.481,136.847a1.487,1.487,0,0,1,1.468-1.279h3.566a.788.788,0,0,1,.788.788v11.138a.788.788,0,0,1-.788.788h-5.707a.788.788,0,0,1-.781-.9Zm4.246,9.859v-9.562h-2.7l-1.319,9.562Z" transform="translate(-352.437 -126.686)" fill="#fff"/>
      <path id="Tracé_18" data-name="Tracé 18" d="M363.088,272.974h2.069a2.068,2.068,0,1,1,0,4.137h-2.069a2.068,2.068,0,0,1,0-4.137Zm0,2.56h2.069a.492.492,0,0,0,0-.984h-2.069a.492.492,0,0,0,0,.984Z" transform="translate(-351.359 -249.652)" fill="#fff"/>
      <path id="Tracé_19" data-name="Tracé 19" d="M57.716,100.36a.788.788,0,0,1-.788-.788v-3.88a.788.788,0,0,1,.788-.788H81.992a.788.788,0,0,1,.788.788v20.147a.788.788,0,0,1-.788.788H57.716a.788.788,0,0,1-.788-.788V102.72a.788.788,0,1,1,1.576,0v12.33H81.2V96.479H58.5v3.092A.788.788,0,0,1,57.716,100.36Z" transform="translate(-34.957 -90.295)" fill="#fff"/>
      <path id="Tracé_20" data-name="Tracé 20" d="M385.161,380.82a2.666,2.666,0,1,1-2.666,2.666A2.669,2.669,0,0,1,385.161,380.82Zm0,3.755a1.089,1.089,0,1,0-1.089-1.089A1.09,1.09,0,0,0,385.161,384.575Z" transform="translate(-374.217 -346.165)" fill="#fff"/>
      <path id="Tracé_21" data-name="Tracé 21" d="M230.83,380.82a2.666,2.666,0,1,1-2.666,2.666A2.669,2.669,0,0,1,230.83,380.82Zm0,3.755a1.089,1.089,0,1,0-1.089-1.089A1.091,1.091,0,0,0,230.83,384.575Z" transform="translate(-203.667 -346.165)" fill="#fff"/>
      <path id="Tracé_22" data-name="Tracé 22" d="M76.5,380.82a2.666,2.666,0,1,1-2.666,2.666A2.669,2.669,0,0,1,76.5,380.82Zm0,3.755a1.089,1.089,0,1,0-1.089-1.089A1.091,1.091,0,0,0,76.5,384.575Z" transform="translate(-33.118 -346.165)" fill="#fff"/>
      <path id="Tracé_23" data-name="Tracé 23" d="M0,86.387v-2.45a1.749,1.749,0,0,1,1.639-1.742V75.262a.788.788,0,0,1,.321-.635L4.854,72.5a1.754,1.754,0,0,0,.694-1.166L7,60.791a4.572,4.572,0,0,1,4.511-3.931h5.851V54.631a3.585,3.585,0,0,1,3.581-3.581H48.851a3.585,3.585,0,0,1,3.581,3.581V72.04a.788.788,0,0,1-1.576,0V54.631a2.007,2.007,0,0,0-2-2H20.943a2.007,2.007,0,0,0-2,2V80.414H50.855V75.163a.788.788,0,0,1,1.576,0v5.4a2.164,2.164,0,0,1,1.374,2.011v3.4a2.165,2.165,0,0,1-2.162,2.162H49.13c0,.078.006.157.006.236a5.755,5.755,0,0,1-11.51,0c0-.079,0-.158.006-.236h-4.72c0,.078.006.157.006.236a5.755,5.755,0,0,1-11.51,0c0-.079,0-.158.006-.236h-4.72c0,.078.006.157.006.236a5.755,5.755,0,0,1-11.51,0c0-.079,0-.158.006-.236H1.748A1.75,1.75,0,0,1,0,86.387ZM43.381,92.55a4.183,4.183,0,0,0,4.179-4.179,4.179,4.179,0,1,0-8.357,0A4.183,4.183,0,0,0,43.381,92.55Zm-16.219,0a4.183,4.183,0,0,0,4.179-4.179,4.179,4.179,0,1,0-8.357,0A4.183,4.183,0,0,0,27.162,92.55Zm-8.224-5.991H21.7a5.73,5.73,0,0,1,.267-.661,5.753,5.753,0,0,1,10.408.038c.034.072.231.623.25.623h5.293c.013-.041.028-.08.043-.12a5.865,5.865,0,0,1,4.631-3.767,5.7,5.7,0,0,1,1.546,0,5.782,5.782,0,0,1,4.707,3.892h2.8a.586.586,0,0,0,.586-.586v-3.4a.586.586,0,0,0-.586-.586h-32.7ZM10.944,92.55a4.183,4.183,0,0,0,4.179-4.179,4.231,4.231,0,0,0-4.179-4.179,4.277,4.277,0,0,0-4.178,4.179A4.183,4.183,0,0,0,10.944,92.55ZM3.438,82.22a1.773,1.773,0,0,1,1.445,1.717v2.622h.6a5.879,5.879,0,0,1,4.693-3.89,5.833,5.833,0,0,1,6.233,3.89h.955V58.436H11.512a2.989,2.989,0,0,0-2.949,2.57L7.109,71.546a3.339,3.339,0,0,1-1.32,2.22L3.215,75.661v.35H4.594A1.661,1.661,0,0,1,6.253,77.67v1.569A1.665,1.665,0,0,1,4.594,80.9H3.215v1.293C3.232,82.192,3.382,82.209,3.438,82.22Zm-.223-4.633v1.735H4.594a.087.087,0,0,0,.083-.083V77.67a.084.084,0,0,0-.083-.083H3.215Zm-1.639,8.8a.172.172,0,0,0,.172.172H3.306V83.937a.172.172,0,0,0-.172-.172H1.748a.172.172,0,0,0-.172.172Z" transform="translate(0 -51.05)" fill="#fff"/>
    </g>
    <g id="Groupe_88" data-name="Groupe 88" transform="translate(55.471 82.713)">
      <path id="Polygone_1" data-name="Polygone 1" d="M5.548,3.181a2,2,0,0,1,3.5,0l3.915,7.109a2,2,0,0,1-1.752,2.965H3.385a2,2,0,0,1-1.752-2.965Z" transform="translate(15.812 26.101) rotate(180)" fill="#fff"/>
      <path id="Tracé_80" data-name="Tracé 80" d="M297.817,284.6h4.77s.7-7.849-2.485-11.535-8.447-3.158-8.447-3.158a7.721,7.721,0,0,1,6.3,7.617C298.262,284.253,297.817,284.6,297.817,284.6Z" transform="translate(-291.656 -269.877)" fill="#fff" stroke="#fff" stroke-linecap="round" stroke-linejoin="round" stroke-width="2"/>
    </g>
  </g>
</svg>
