<svg xmlns="http://www.w3.org/2000/svg" xmlns:xlink="http://www.w3.org/1999/xlink" width="83" height="60" viewBox="0 0 83 60">
  <defs>
    <clipPath id="clip-path">
      <rect id="Rectangle_1" data-name="Rectangle 1" width="83" height="60" fill="#ddd" opacity="0.671"/>
    </clipPath>
  </defs>
  <g id="Picto_carnet" data-name="Picto carnet" clip-path="url(#clip-path)">
    <g id="Journal_de_bord" data-name="Journal de bord" transform="translate(8.919 8.681) rotate(9)">
      <path id="Soustraction_1" data-name="Soustraction 1" d="M71.367,69.942h0L41,65.123l-.142.38a5.41,5.41,0,0,1-10.474-1.661l-.018-.405L0,58.62,7.238,12.852l4.667.74L13.014,6.58,37.03,10.39a5.426,5.426,0,0,1,4.5,6.2l-.262,1.658,3.311.526.263-1.658a5.407,5.407,0,0,1,6.192-4.506l3.989.633,1.372-8.67a5.412,5.412,0,1,1,10.69,1.7l-.7,4.415.689-.13a3.27,3.27,0,0,1,.612-.061,2.687,2.687,0,0,1,.42.033,3.057,3.057,0,0,1,2.534,3.495l-.262,1.658,4.667.741-1.109,7.012,4.667.741L71.367,69.941ZM39.888,63.554h0l30.337,4.813,6.808-43.052-3.311-.526L67.44,64.526,38.079,59.868l1.109-7.012-3.311-.526-1.109,7.012L5.407,54.685l6.284-39.734-3.312-.526L1.571,57.477,31.91,62.289l-.107.679a4.039,4.039,0,1,0,7.979,1.265l.107-.679Zm.656-10.483h0l-.895,5.654L66.3,62.952l7.178-45.389-3.312-.526L68.132,29.893l-1.356-.215,2.51-15.871a1.677,1.677,0,1,0-3.312-.526L62.262,36.755,57.27,47.144,65.2,48.4l-.214,1.358-9.732-1.544c-1.653-.422-2.069-1.389-2.171-1.928l-.026-.2a1,1,0,0,1,0-.114l-.013,0L51.6,34.889,54.806,14.6l-3.99-.633A4.046,4.046,0,0,0,46.2,17.332l-.262,1.658.489.077a1.874,1.874,0,0,1,1.553,2.141l-.369,2.337A1.865,1.865,0,0,1,45.468,25.1l-.489-.077-.525,3.316.489.077A1.874,1.874,0,0,1,46.5,30.558l-.37,2.337a1.867,1.867,0,0,1-2.138,1.555l-.489-.077-.525,3.316.49.078a1.872,1.872,0,0,1,1.553,2.14l-.37,2.337A1.866,1.866,0,0,1,42.512,43.8l-.49-.077L41.5,47.038l.489.077a1.872,1.872,0,0,1,1.553,2.14l-.37,2.337a1.866,1.866,0,0,1-2.137,1.555l-.489-.077ZM14.155,8.153,6.978,53.542l26.648,4.227.895-5.654-.489-.077a1.872,1.872,0,0,1-1.552-2.14l.369-2.337a1.867,1.867,0,0,1,2.138-1.555l.489.077L36,42.766l-.489-.077a1.872,1.872,0,0,1-1.553-2.14l.37-2.337a1.865,1.865,0,0,1,2.138-1.555l.489.077.524-3.317-.489-.077A1.874,1.874,0,0,1,35.436,31.2l.37-2.337a1.866,1.866,0,0,1,2.137-1.555l.489.078.525-3.316-.489-.078a1.872,1.872,0,0,1-1.552-2.14l.37-2.337a1.866,1.866,0,0,1,2.137-1.555l.489.077.263-1.658a4.05,4.05,0,0,0-3.358-4.629ZM34.282,47.286,33.757,50.6l7.98,1.265.523-3.317Zm3.073-4.3L36.831,46.3l3.311.526.525-3.317ZM53.069,35.89h0L54.44,46.044a.881.881,0,0,0,.756.741,1,1,0,0,0,.155.013.865.865,0,0,0,.793-.482l4.437-9.233L53.069,35.89ZM35.761,37.937l-.525,3.317,7.98,1.265.523-3.317Zm3.073-4.3-.525,3.317,3.312.525.524-3.317-3.311-.525h0Zm17.7-21.153h0L53.051,34.5l7.979,1.265L64.51,13.746l-7.979-1.266ZM37.239,28.587,36.715,31.9l7.98,1.266.523-3.316Zm3.073-4.3L39.787,27.6l3.311.525.525-3.316Zm-1.595-5.045-.524,3.316,7.979,1.266L46.7,20.5ZM61.736,1.376a4.049,4.049,0,0,0-3.988,3.413l-1,6.332,7.979,1.266,1-6.333a4.042,4.042,0,0,0-3.991-4.679Z" transform="translate(-8.413 -4.627) rotate(-9)" fill="#f2664f"/>
    </g>
  </g>
</svg>
