<svg xmlns="http://www.w3.org/2000/svg" xmlns:xlink="http://www.w3.org/1999/xlink" width="25" height="25" viewBox="0 0 25 25">
  <defs>
    <clipPath id="clip-path">
      <rect id="Picto" width="25" height="25" fill="#f2664f"/>
    </clipPath>
  </defs>
  <g id="Picto_croix" data-name="Picto croix" clip-path="url(#clip-path)">
    <path id="cancel_24dp_E8EAED_FILL0_wght200_GRAD0_opsz24" d="M11.667-10.684l5-5,5,5,.983-.983-5-5,5-5-.983-.983-5,5-5-5-.983.983,5,5-5,5Zm5,6.517A12.183,12.183,0,0,1,11.8-5.151,12.634,12.634,0,0,1,7.825-7.822a12.613,12.613,0,0,1-2.673-3.967,12.155,12.155,0,0,1-.985-4.873,12.183,12.183,0,0,1,.984-4.875,12.634,12.634,0,0,1,2.671-3.971,12.613,12.613,0,0,1,3.967-2.673,12.155,12.155,0,0,1,4.873-.985,12.183,12.183,0,0,1,4.875.984,12.634,12.634,0,0,1,3.971,2.671,12.613,12.613,0,0,1,2.673,3.967,12.155,12.155,0,0,1,.985,4.873,12.183,12.183,0,0,1-.984,4.875,12.634,12.634,0,0,1-2.671,3.971,12.613,12.613,0,0,1-3.967,2.673A12.155,12.155,0,0,1,16.671-4.167Zm0-1.389a10.724,10.724,0,0,0,7.882-3.229,10.724,10.724,0,0,0,3.229-7.882,10.724,10.724,0,0,0-3.229-7.882,10.724,10.724,0,0,0-7.882-3.229,10.724,10.724,0,0,0-7.882,3.229,10.724,10.724,0,0,0-3.229,7.882A10.724,10.724,0,0,0,8.785-8.785,10.724,10.724,0,0,0,16.667-5.556ZM16.667-16.667Z" transform="translate(-4.167 29.167)" fill="#f2664f"/>
  </g>
</svg>
