<svg xmlns="http://www.w3.org/2000/svg" xmlns:xlink="http://www.w3.org/1999/xlink" width="20" height="20" viewBox="0 0 20 20">
  <defs>
    <clipPath id="clip-path">
      <rect id="Rectangle_15" data-name="Rectangle 15" width="20" height="20" fill="#fff"/>
    </clipPath>
  </defs>
  <g id="Recherche" clip-path="url(#clip-path)">
    <path id="search_24dp_E8EAED_FILL0_wght200_GRAD0_opsz24-2" d="M23.784-4.695l-7.643-7.643a6.715,6.715,0,0,1-2.106,1.207,7.036,7.036,0,0,1-2.392.427,6.755,6.755,0,0,1-4.964-2.03A6.747,6.747,0,0,1,4.648-17.7a6.762,6.762,0,0,1,2.03-4.965,6.743,6.743,0,0,1,4.961-2.034A6.761,6.761,0,0,1,16.6-22.664,6.749,6.749,0,0,1,18.639-17.7a6.9,6.9,0,0,1-.451,2.462A6.69,6.69,0,0,1,17-13.2l7.643,7.644-.864.864Zm-12.141-7.23a5.578,5.578,0,0,0,4.1-1.673,5.577,5.577,0,0,0,1.673-4.1,5.577,5.577,0,0,0-1.673-4.1,5.578,5.578,0,0,0-4.1-1.673,5.577,5.577,0,0,0-4.1,1.673,5.577,5.577,0,0,0-1.673,4.1,5.577,5.577,0,0,0,1.673,4.1,5.577,5.577,0,0,0,4.1,1.673Z" transform="translate(-4.816 24.527)" fill="#fff"/>
  </g>
</svg>
