<svg xmlns="http://www.w3.org/2000/svg" xmlns:xlink="http://www.w3.org/1999/xlink" width="21" height="21" viewBox="0 0 21 21">
  <defs>
    <clipPath id="clip-path">
      <rect id="Rectangle_3" data-name="Rectangle 3" width="21" height="21" transform="translate(36.5 15)" fill="#fff"/>
    </clipPath>
  </defs>
  <g id="Saisie_matières" data-name="Saisie matières" transform="translate(-36.5 -15)" clip-path="url(#clip-path)">
    <path id="archive_24dp_E8EAED_FILL0_wght200_GRAD0_opsz24" d="M15.75-8.935l4.341-4.341-.929-.929-2.756,2.756v-6.169H15.094v6.169l-2.756-2.756-.929.929ZM6.562-21.252V-7.37a.787.787,0,0,0,.227.581.787.787,0,0,0,.581.227H24.13a.787.787,0,0,0,.581-.227.787.787,0,0,0,.227-.581V-21.252Zm1.01,16a2.22,2.22,0,0,1-1.6-.721,2.22,2.22,0,0,1-.721-1.6v-14.1a2.106,2.106,0,0,1,.122-.722,1.993,1.993,0,0,1,.367-.623l2.045-2.456a1.817,1.817,0,0,1,.713-.579,2.181,2.181,0,0,1,.917-.2h12.62a2.266,2.266,0,0,1,.93.2,1.8,1.8,0,0,1,.726.579l2.07,2.506a1.96,1.96,0,0,1,.367.636,2.216,2.216,0,0,1,.122.735V-7.572a2.22,2.22,0,0,1-.721,1.6,2.22,2.22,0,0,1-1.6.721Zm-.51-17.315h17.35l-1.747-2.1a1,1,0,0,0-.29-.2.8.8,0,0,0-.341-.076H9.44a.8.8,0,0,0-.341.076,1,1,0,0,0-.29.2l-1.747,2.1ZM15.75-13.908Z" transform="translate(31.25 41.25)" fill="#fff"/>
  </g>
</svg>
