<svg xmlns="http://www.w3.org/2000/svg" width="21.584" height="22" viewBox="0 0 21.584 22">
  <path id="Signer" d="M22.992,13.122l1.237-1.237a2.338,2.338,0,0,0,0-3.3L22.583,6.938a2.338,2.338,0,0,0-3.3,0L18.045,8.175l4.947,4.947Zm-4.947,1.657-8.4,8.388H8V21.522l8.388-8.388ZM16.388,9.82,5.667,20.553V25.5h4.947L21.335,14.778Zm6.778,11.6c0,2.555-2.963,4.083-5.833,4.083a1.167,1.167,0,0,1,0-2.333c1.8,0,3.5-.852,3.5-1.75,0-.548-.56-1.015-1.435-1.4l1.727-1.727A3.548,3.548,0,0,1,23.167,21.417ZM6.343,16.575A3.111,3.111,0,0,1,4.5,13.833c0-2.1,2.2-3.068,4.153-3.92C9.855,9.377,11.5,8.653,11.5,8c0-.478-.91-1.167-2.333-1.167a2.838,2.838,0,0,0-2.135.747A1.184,1.184,0,0,1,5.4,7.72a1.157,1.157,0,0,1-.175-1.61A4.96,4.96,0,0,1,9.167,4.5c2.613,0,4.667,1.54,4.667,3.5,0,2.182-2.252,3.173-4.247,4.048-1.1.478-2.753,1.2-2.753,1.785,0,.362.5.7,1.248,1Z" transform="translate(-4 -4)" stroke="#fff" stroke-width="1" opacity="0.398"/>
</svg>
