<svg xmlns="http://www.w3.org/2000/svg" xmlns:xlink="http://www.w3.org/1999/xlink" width="21" height="21" viewBox="0 0 21 21">
  <defs>
    <clipPath id="clip-path">
      <rect id="Rectangle_13" data-name="Rectangle 13" width="21" height="21" transform="translate(40 571.5)" fill="rgba(0,0,0,0.4)"/>
    </clipPath>
  </defs>
  <g id="Ticket" transform="translate(-40 -571.5)" clip-path="url(#clip-path)">
    <path id="receipt_long_24dp_E8EAED_FILL0_wght200_GRAD0_opsz24" d="M7.153-3.576a2.3,2.3,0,0,1-1.7-.688A2.292,2.292,0,0,1,4.769-5.95V-8.345H8.345V-24.576l1.513,1.055,1.559-1.055,1.559,1.055,1.559-1.055,1.559,1.055,1.559-1.055,1.559,1.055,1.559-1.055,1.559,1.055,1.513-1.055V-5.961a2.3,2.3,0,0,1-.688,1.7,2.3,2.3,0,0,1-1.7.688ZM21.458-4.769a1.153,1.153,0,0,0,.849-.343,1.153,1.153,0,0,0,.343-.849v-16.69H9.537V-8.345H20.266v2.384a1.153,1.153,0,0,0,.343.849A1.153,1.153,0,0,0,21.458-4.769ZM11.188-18.478V-19.67h6.373v1.192Zm0,3.576v-1.192h6.373V-14.9Zm8.941-3.255a.88.88,0,0,1-.643-.274.881.881,0,0,1-.274-.643.881.881,0,0,1,.274-.643.88.88,0,0,1,.643-.274.88.88,0,0,1,.643.274.881.881,0,0,1,.274.643.881.881,0,0,1-.274.643A.88.88,0,0,1,20.129-18.157Zm0,3.576a.88.88,0,0,1-.643-.274.881.881,0,0,1-.274-.643.881.881,0,0,1,.274-.643.88.88,0,0,1,.643-.274.88.88,0,0,1,.643.274.881.881,0,0,1,.274.643.881.881,0,0,1-.274.643.88.88,0,0,1-.643.274ZM7.153-4.769H19.074V-7.153H5.961v1.192a1.153,1.153,0,0,0,.343.849A1.153,1.153,0,0,0,7.153-4.769Zm-1.192,0v0Z" transform="translate(36.194 596.076)" fill="rgba(0,0,0,0.4)"/>
  </g>
</svg>
