<svg xmlns="http://www.w3.org/2000/svg" xmlns:xlink="http://www.w3.org/1999/xlink" width="40" height="40" viewBox="0 0 40 40">
  <defs>
    <clipPath id="clip-path">
      <rect id="Rectangle_12" data-name="Rectangle 12" width="40" height="40"/>
    </clipPath>
  </defs>
  <g id="User_grand" data-name="User grand" clip-path="url(#clip-path)">
    <path id="person_24dp_E8EAED_FILL0_wght200_GRAD0_opsz24" d="M34.286-36.044a8.254,8.254,0,0,1-6.054-2.518,8.254,8.254,0,0,1-2.518-6.054,8.254,8.254,0,0,1,2.518-6.054,8.254,8.254,0,0,1,6.054-2.518,8.254,8.254,0,0,1,6.054,2.518,8.254,8.254,0,0,1,2.518,6.054,8.254,8.254,0,0,1-2.518,6.054A8.254,8.254,0,0,1,34.286-36.044Zm-20,20.66v-4.7a5.849,5.849,0,0,1,1.03-3.311,6.925,6.925,0,0,1,2.772-2.393A40.572,40.572,0,0,1,26.181-28.7a34.365,34.365,0,0,1,16.209,0,40.572,40.572,0,0,1,8.094,2.909A6.925,6.925,0,0,1,53.256-23.4a5.849,5.849,0,0,1,1.03,3.311v4.7Zm2.857-2.857H51.429v-1.846a2.963,2.963,0,0,0-.613-1.786,4.926,4.926,0,0,0-1.695-1.412A36.262,36.262,0,0,0,41.847-25.9a31.894,31.894,0,0,0-15.123,0,36.262,36.262,0,0,0-7.274,2.618,4.926,4.926,0,0,0-1.695,1.412,2.963,2.963,0,0,0-.613,1.786ZM34.286-38.9a5.5,5.5,0,0,0,4.036-1.679A5.5,5.5,0,0,0,40-44.616a5.5,5.5,0,0,0-1.679-4.036,5.5,5.5,0,0,0-4.036-1.679,5.5,5.5,0,0,0-4.036,1.679,5.5,5.5,0,0,0-1.679,4.036A5.5,5.5,0,0,0,30.25-40.58,5.5,5.5,0,0,0,34.286-38.9ZM34.286-44.616ZM34.286-18.241Z" transform="translate(-14.286 54.286)"/>
  </g>
</svg>
