<svg xmlns="http://www.w3.org/2000/svg" width="67.235" height="65.286" viewBox="0 0 67.235 65.286">
  <path id="Carte_de_ville" data-name="Carte de ville" d="M43.043,21.978a6.327,6.327,0,0,0,6.32-6.32c-.3-8.365-12.345-8.363-12.641,0a6.327,6.327,0,0,0,6.32,6.32Zm0-10.531a4.21,4.21,0,1,1-4.21,4.21,4.21,4.21,0,0,1,4.21-4.21ZM39.9,32.351a3.392,3.392,0,0,0,6.285,0,54.9,54.9,0,0,1,5.687-10.933,10.548,10.548,0,1,0-17.75-.14A65.611,65.611,0,0,1,39.9,32.351ZM34.681,14.514C36.388,4.2,51.192,5.187,51.48,15.658a8.37,8.37,0,0,1-1.372,4.6,57.5,57.5,0,0,0-5.561,10.49l-.325.827a1.274,1.274,0,0,1-2.358,0,67.688,67.688,0,0,0-5.959-11.429,8.366,8.366,0,0,1-1.224-5.636ZM63.086,8.169V51.313a1.056,1.056,0,0,1-.584.944c-.052,0-18.985,9.519-19.04,9.5a1.048,1.048,0,0,1-.895-.011l-18.541-9.25-18.5,9.25A1.063,1.063,0,0,1,4,60.8V52.484a1.055,1.055,0,1,1,2.11,0v6.607l16.882-8.441V9.876L6.11,18.308V48.264a1.055,1.055,0,1,1-2.11,0V17.655a1.055,1.055,0,0,1,.583-.944L23.576,7.226a1.127,1.127,0,0,1,.943,0l6.593,3.3a1.058,1.058,0,0,1-.439,2.015c.049.267-5.483-2.659-5.571-2.661V50.671l16.882,8.422c0-3.635,0-13.911,0-17.408a1.055,1.055,0,1,1,2.11,0c0,3.534,0,13.7,0,17.407l16.882-8.432V9.877l-5.1,2.55a1.055,1.055,0,1,1-.944-1.888l6.626-3.313a1.055,1.055,0,0,1,1.527.944Z" transform="translate(5.725 -5.67) rotate(9)" fill="#f2664f"/>
</svg>
