<svg xmlns="http://www.w3.org/2000/svg" xmlns:xlink="http://www.w3.org/1999/xlink" width="21" height="21" viewBox="0 0 21 21">
  <defs>
    <clipPath id="clip-path">
      <rect id="Rectangle_172" data-name="Rectangle 172" width="21" height="21" transform="translate(40 573)" fill="rgba(0,0,0,0.4)"/>
    </clipPath>
  </defs>
  <g id="Fiche" transform="translate(-40 -573)" clip-path="url(#clip-path)">
    <g id="Icon_ion-reader-outline" data-name="Icon ion-reader-outline" transform="translate(35.673 569.625)">
      <g id="Tracé_129" data-name="Tracé 129" fill="none" stroke-linejoin="round">
        <path d="M9.173,3.375H20.481A2.423,2.423,0,0,1,22.9,5.8V21.952a2.423,2.423,0,0,1-2.423,2.423H9.173A2.423,2.423,0,0,1,6.75,21.952V5.8A2.423,2.423,0,0,1,9.173,3.375Z" stroke="none"/>
        <path d="M 9.173074722290039 4.875001907348633 C 8.664094924926758 4.875001907348633 8.250003814697266 5.289091110229492 8.250003814697266 5.798080444335938 L 8.250003814697266 21.9519214630127 C 8.250003814697266 22.46091079711914 8.664094924926758 22.875 9.173074722290039 22.875 L 20.48077392578125 22.875 C 20.98975372314453 22.875 21.40384292602539 22.46091079711914 21.40384292602539 21.9519214630127 L 21.40384292602539 5.798080444335938 C 21.40384292602539 5.289091110229492 20.98975372314453 4.875001907348633 20.48077392578125 4.875001907348633 L 9.173074722290039 4.875001907348633 M 9.173074722290039 3.375001907348633 L 20.48077392578125 3.375001907348633 C 21.81900405883789 3.375001907348633 22.90384483337402 4.459850311279297 22.90384483337402 5.798080444335938 L 22.90384483337402 21.9519214630127 C 22.90384483337402 23.29015159606934 21.81900405883789 24.375 20.48077392578125 24.375 L 9.173074722290039 24.375 C 7.834844589233398 24.375 6.750003814697266 23.29015159606934 6.750003814697266 21.9519214630127 L 6.750003814697266 5.798080444335938 C 6.750003814697266 4.459850311279297 7.834844589233398 3.375001907348633 9.173074722290039 3.375001907348633 Z" stroke="none" fill="rgba(0,0,0,0.4)"/>
      </g>
      <path id="Tracé_130" data-name="Tracé 130" d="M12.375,9h8.077m-8.077,4.038h8.077m-8.077,4.038h4.038" transform="translate(-1.587 -1.587)" fill="none" stroke="rgba(0,0,0,0.4)" stroke-linecap="round" stroke-linejoin="round" stroke-width="1.5"/>
    </g>
  </g>
</svg>
