<svg xmlns="http://www.w3.org/2000/svg" xmlns:xlink="http://www.w3.org/1999/xlink" width="21" height="21" viewBox="0 0 21 21">
  <defs>
    <clipPath id="clip-path">
      <rect id="Rectangle_172" data-name="Rectangle 172" width="21" height="21" transform="translate(39.75 606)" fill="rgba(0,0,0,0.4)"/>
    </clipPath>
  </defs>
  <g id="Information" transform="translate(-39.75 -606)" clip-path="url(#clip-path)">
    <g id="Icon_akar-info" data-name="Icon akar-info" transform="translate(37.327 603.577)">
      <g id="Tracé_111" data-name="Tracé 111" transform="translate(0 0)" fill="none">
        <path d="M22.846,12.923A9.923,9.923,0,1,1,12.923,3a9.923,9.923,0,0,1,9.923,9.923Z" stroke="none"/>
        <path d="M 12.9232177734375 4.499998092651367 C 8.278636932373047 4.499998092651367 4.499998092651367 8.27863883972168 4.499998092651367 12.92321872711182 C 4.499998092651367 17.56779861450195 8.278636932373047 21.34643936157227 12.9232177734375 21.34643936157227 C 17.56779861450195 21.34643936157227 21.34643745422363 17.56779861450195 21.34643745422363 12.92321872711182 C 21.34643745422363 8.27863883972168 17.56779861450195 4.499998092651367 12.9232177734375 4.499998092651367 M 12.9232177734375 2.999998092651367 C 18.40365791320801 2.999998092651367 22.84643745422363 7.442779541015625 22.84643745422363 12.92321872711182 C 22.84643745422363 18.40365982055664 18.40365791320801 22.84643936157227 12.9232177734375 22.84643936157227 C 7.442777633666992 22.84643936157227 2.999998092651367 18.40365982055664 2.999998092651367 12.92321872711182 C 2.999998092651367 7.442779541015625 7.442777633666992 2.999998092651367 12.9232177734375 2.999998092651367 Z" stroke="none" fill="rgba(0,0,0,0.4)"/>
      </g>
      <path id="Tracé_112" data-name="Tracé 112" d="M18,10.5h.01" transform="translate(-5.077 -2.538)" fill="none" stroke="rgba(0,0,0,0.4)" stroke-linecap="round" stroke-width="1.5"/>
      <path id="Tracé_113" data-name="Tracé 113" d="M15,16.5h1.985v4.962m-1.985,0h3.969" transform="translate(-4.061 -4.569)" fill="none" stroke="rgba(0,0,0,0.4)" stroke-linecap="round" stroke-linejoin="round" stroke-width="1.5"/>
    </g>
  </g>
</svg>
