<svg xmlns="http://www.w3.org/2000/svg" xmlns:xlink="http://www.w3.org/1999/xlink" width="21" height="21" viewBox="0 0 21 21">
  <defs>
    <clipPath id="clip-path">
      <rect id="Rectangle_172" data-name="Rectangle 172" width="21" height="21" transform="translate(39.75 606)"/>
    </clipPath>
  </defs>
  <g id="Monnaie" transform="translate(-39.75 -606)" clip-path="url(#clip-path)">
    <path id="Icon_fa-solid-coins" data-name="Icon fa-solid-coins" d="M20.75,3.281c0,.738-.58,1.419-1.556,1.969a12.258,12.258,0,0,1-4.956,1.267c-.15-.074-.3-.144-.458-.205a15.829,15.829,0,0,0-6-1.062c-.336,0-.665.008-.993.025L6.744,5.25C5.767,4.7,5.188,4.02,5.188,3.281,5.188,1.468,8.673,0,12.969,0S20.75,1.468,20.75,3.281ZM6.513,6.608c.413-.029.839-.045,1.269-.045a13.438,13.438,0,0,1,6.18,1.288c1.005.554,1.6,1.243,1.6,1.993a1.393,1.393,0,0,1-.085.48,2.958,2.958,0,0,1-1.418,1.456s-.012,0-.016.008-.024.012-.036.021a13.375,13.375,0,0,1-6.225,1.313,13.8,13.8,0,0,1-6.006-1.194c-.077-.037-.15-.078-.223-.119C.58,11.263,0,10.582,0,9.844,0,8.416,2.164,7.2,5.188,6.751,5.613,6.69,6.055,6.64,6.513,6.608ZM16.859,9.844a3.113,3.113,0,0,0-.977-2.19,13.512,13.512,0,0,0,3.088-.841A7,7,0,0,0,20.75,5.767V7.219c0,.792-.669,1.522-1.775,2.088a9.741,9.741,0,0,1-2.124.759c0-.074.008-.144.008-.217Zm-1.3,3.938c0,.738-.58,1.419-1.556,1.969-.073.041-.146.078-.223.119a13.767,13.767,0,0,1-6,1.194A13.375,13.375,0,0,1,1.556,15.75C.58,15.2,0,14.52,0,13.781V12.329a7.07,7.07,0,0,0,1.779,1.046,15.866,15.866,0,0,0,6,1.062,15.866,15.866,0,0,0,6-1.062,8.14,8.14,0,0,0,.908-.447,6.431,6.431,0,0,0,.7-.459c.061-.045.118-.094.174-.139Zm1.3,0V11.406a12.451,12.451,0,0,0,2.111-.656A7,7,0,0,0,20.75,9.7v1.452a1.822,1.822,0,0,1-.6,1.267A7.063,7.063,0,0,1,16.851,14c0-.07.008-.144.008-.217ZM7.781,18.375a15.866,15.866,0,0,0,6-1.062,7,7,0,0,0,1.779-1.046v1.452c0,1.813-3.485,3.281-7.781,3.281S0,19.532,0,17.719V16.267a7.07,7.07,0,0,0,1.779,1.046A15.866,15.866,0,0,0,7.781,18.375Z" transform="translate(40 606)"/>
  </g>
</svg>
