<svg xmlns="http://www.w3.org/2000/svg" width="200" height="187.406" viewBox="0 0 200 187.406"><g transform="translate(0 -16.12)"><path d="M130.77,153.549a2.948,2.948,0,0,0-2.947-2.947H15.755a9.871,9.871,0,0,1-9.86-9.86V47.63H18.957a2.947,2.947,0,1,0,0-5.895H5.895v-9.86a9.871,9.871,0,0,1,9.86-9.86H150.236a9.871,9.871,0,0,1,9.86,9.86v9.86H31.765a2.947,2.947,0,1,0,0,5.895H160.1v70.7a2.947,2.947,0,1,0,5.895,0V31.875A15.773,15.773,0,0,0,150.236,16.12H15.755A15.773,15.773,0,0,0,0,31.875V140.741A15.773,15.773,0,0,0,15.755,156.5H127.823A2.947,2.947,0,0,0,130.77,153.549Z" fill="#f2664f"/><path d="M35.537,48.71a2.947,2.947,0,0,0,0,5.895h3.2a2.947,2.947,0,0,0,0-5.895Z" transform="translate(-19.782 -19.782)" fill="#f2664f"/><path d="M76.275,54.6h3.2a2.947,2.947,0,1,0,0-5.895h-3.2a2.947,2.947,0,1,0,0,5.895Z" transform="translate(-44.511 -19.782)" fill="#f2664f"/><path d="M219.475,54.6a2.947,2.947,0,0,0,0-5.895H117.012a2.947,2.947,0,0,0,0,5.895Z" transform="translate(-69.822 -19.782)" fill="#f2664f"/><path d="M371.364,280.5l-9.056-9.056a9.362,9.362,0,0,0-13.225,0l-52.2,52.2a15.832,15.832,0,0,0-3.806,6.158l-8.1,24.3a2.947,2.947,0,0,0,3.728,3.728l24.3-8.1a15.835,15.835,0,0,0,6.158-3.806l.124-.124,0,0,0,0,52.073-52.072a9.362,9.362,0,0,0,0-13.225Zm-54.158,59.047-4.888-4.888,43.378-43.378,4.888,4.888Zm-9.057-9.056-4.888-4.888,43.378-43.378,4.888,4.888ZM294.72,343.507l4.576,4.576-6.864,2.288ZM305.549,346l-8.744-8.744,1.864-5.592a9.851,9.851,0,0,1,.707-1.614l6.689,6.689h0l6.689,6.689a9.861,9.861,0,0,1-1.614.707ZM367.2,289.553,364.751,292l-13.945-13.945,2.444-2.444a3.456,3.456,0,0,1,4.888,0l9.056,9.056a3.457,3.457,0,0,1,0,4.888Z" transform="translate(-174.098 -154.453)" fill="#f2664f"/><path d="M76.53,170.833v1.009a12.553,12.553,0,0,0,25.106,0v-1.009a6.153,6.153,0,0,0,3.2-5.4v-6.4a12.567,12.567,0,0,0-12.553-12.553h-6.4a12.568,12.568,0,0,0-12.553,12.553v6.4A6.155,6.155,0,0,0,76.53,170.833Zm19.211,1.009a6.658,6.658,0,0,1-13.317,0v-4.975l3.951-3.115,9.365,3.692Zm-9.86-19.466h6.4a6.666,6.666,0,0,1,6.659,6.658v3.336l-11.981-4.723a2.95,2.95,0,0,0-2.906.428l-4.833,3.811v-2.851a6.665,6.665,0,0,1,6.658-6.658Z" transform="translate(-44.51 -79.515)" fill="#f2664f"/><path d="M96.12,180.876V123.241a9.362,9.362,0,0,0-9.351-9.351H41.941a9.362,9.362,0,0,0-9.351,9.351v57.635a9.362,9.362,0,0,0,9.351,9.351H86.768a9.362,9.362,0,0,0,9.352-9.351ZM41.941,119.785H86.768a3.46,3.46,0,0,1,3.456,3.456v47.094a12.712,12.712,0,0,0-2-1.015l-9.971-3.988a2.945,2.945,0,0,0-2.863.378l-7.044,5.283a6.693,6.693,0,0,1-7.99,0l-7.044-5.283a2.946,2.946,0,0,0-2.863-.378l-9.971,3.988a12.69,12.69,0,0,0-2,1.014V123.241A3.461,3.461,0,0,1,41.941,119.785Zm-3.454,61.134a6.625,6.625,0,0,1,4.183-6.125L51.1,171.42l5.719,4.29a12.618,12.618,0,0,0,15.064,0l5.719-4.29,8.433,3.373a6.625,6.625,0,0,1,4.184,6.125,3.46,3.46,0,0,1-3.454,3.414H41.941A3.459,3.459,0,0,1,38.487,180.919Z" transform="translate(-19.782 -59.735)" fill="#f2664f"/><path d="M59.98,325.726a2.947,2.947,0,1,0,0,5.895H98.4a2.947,2.947,0,1,0,0-5.895Z" transform="translate(-34.619 -188.687)" fill="#f2664f"/><path d="M222.93,136.08h44.827a2.947,2.947,0,0,0,0-5.895H222.93a2.947,2.947,0,0,0,0,5.895Z" transform="translate(-134.225 -69.516)" fill="#f2664f"/><path d="M222.93,168.671h44.827a2.947,2.947,0,1,0,0-5.895H222.93a2.947,2.947,0,0,0,0,5.895Z" transform="translate(-134.225 -89.378)" fill="#f2664f"/><path d="M280.565,211.661H222.93a2.947,2.947,0,0,0,0,5.895h57.635a2.947,2.947,0,0,0,0-5.895Z" transform="translate(-134.29 -119.171)" fill="#f2664f"/><path d="M283.513,279.788a2.948,2.948,0,0,0-2.947-2.947H222.93a2.947,2.947,0,0,0,0,5.895h57.635A2.948,2.948,0,0,0,283.513,279.788Z" transform="translate(-134.29 -158.894)" fill="#f2664f"/><path d="M222.93,309.431a2.947,2.947,0,1,0,0,5.895h44.827a2.947,2.947,0,0,0,0-5.895Z" transform="translate(-134.225 -178.756)" fill="#f2664f"/><path d="M280.565,244.251H222.93a2.947,2.947,0,0,0,0,5.895h57.635a2.947,2.947,0,0,0,0-5.895Z" transform="translate(-134.29 -139.033)" fill="#f2664f"/></g></svg>