<svg xmlns="http://www.w3.org/2000/svg" xmlns:xlink="http://www.w3.org/1999/xlink" width="21" height="21" viewBox="0 0 21 21">
  <defs>
    <clipPath id="clip-path">
      <rect id="Rectangle_172" data-name="Rectangle 172" width="21" height="21" transform="translate(39.75 606)" fill="rgba(0,0,0,0.4)"/>
    </clipPath>
  </defs>
  <g id="Pin_map" data-name="Pin map" transform="translate(-39.75 -606)" clip-path="url(#clip-path)">
    <g id="Icon_feather-map-pin" data-name="Icon feather-map-pin" transform="translate(37.159 604.5)">
      <g id="Tracé_116" data-name="Tracé 116" fill="none" stroke-linecap="round" stroke-linejoin="round">
        <path d="M21.682,10.091c0,6.682-8.591,12.409-8.591,12.409S4.5,16.773,4.5,10.091a8.591,8.591,0,1,1,17.182,0Z" stroke="none"/>
        <path d="M 13.09090995788574 3.000001907348633 C 9.18096923828125 3.000001907348633 6 6.180971145629883 6 10.09091091156006 C 6 13.03194141387939 8.090499877929688 15.86677074432373 9.844209671020508 17.72701072692871 C 11.06669521331787 19.02375411987305 12.30533885955811 20.04331207275391 13.09167289733887 20.64544105529785 C 13.86698436737061 20.05221366882324 15.08260440826416 19.05184173583984 16.29743957519531 17.7695198059082 C 18.0694694519043 15.89904117584229 20.18181991577148 13.04851055145264 20.18181991577148 10.09091091156006 C 20.18181991577148 6.180971145629883 17.00085067749023 3.000001907348633 13.09090995788574 3.000001907348633 M 13.09090995788574 1.500001907348633 C 17.83554077148438 1.500001907348633 21.68181991577148 5.346281051635742 21.68181991577148 10.09091091156006 C 21.68181991577148 16.77273178100586 13.09090995788574 22.5 13.09090995788574 22.5 C 13.09090995788574 22.5 4.5 16.77273178100586 4.5 10.09091091156006 C 4.5 5.346281051635742 8.346279144287109 1.500001907348633 13.09090995788574 1.500001907348633 Z" stroke="none" fill="rgba(0,0,0,0.4)"/>
      </g>
      <g id="Tracé_117" data-name="Tracé 117" transform="translate(-3.273 -3.273)" fill="none" stroke-linecap="round" stroke-linejoin="round">
        <path d="M19.227,13.364A2.864,2.864,0,1,1,16.364,10.5a2.864,2.864,0,0,1,2.864,2.864Z" stroke="none"/>
        <path d="M 16.3636360168457 11.99999809265137 C 15.61172676086426 11.99999809265137 14.99999618530273 12.61172771453857 14.99999618530273 13.36363792419434 C 14.99999618530273 14.1155481338501 15.61173629760742 14.72726821899414 16.36365509033203 14.72726821899414 C 17.11555480957031 14.72726821899414 17.72727584838867 14.1155481338501 17.72727584838867 13.36363792419434 C 17.72727584838867 12.61172771453857 17.11554718017578 11.99999809265137 16.3636360168457 11.99999809265137 M 16.3636360168457 10.49999809265137 C 17.94517517089844 10.49999809265137 19.22727584838867 11.78209781646729 19.22727584838867 13.36363792419434 C 19.22727584838867 14.94508171081543 17.94506072998047 16.22726821899414 16.36365509033203 16.22726821899414 C 16.36355781555176 16.22726821899414 16.36373329162598 16.22726821899414 16.3636360168457 16.22726821899414 C 14.78209686279297 16.22726821899414 13.49999618530273 14.94517803192139 13.49999618530273 13.36363792419434 C 13.49999618530273 11.78209781646729 14.78209686279297 10.49999809265137 16.3636360168457 10.49999809265137 Z" stroke="none" fill="rgba(0,0,0,0.4)"/>
      </g>
    </g>
  </g>
</svg>
