<svg xmlns="http://www.w3.org/2000/svg" width="58.306" height="58.306" viewBox="0 0 58.306 58.306">
  <g id="Utilisateur" transform="translate(-2.5 -2.5)">
    <path id="Tracé_102" data-name="Tracé 102" d="M28.561,16H20.831A12.331,12.331,0,0,0,8.5,28.331v1.857a7.429,7.429,0,0,0,7.407,7.407H33.485a7.429,7.429,0,0,0,7.407-7.407V28.331A12.331,12.331,0,0,0,28.561,16ZM38.733,30.188a5.248,5.248,0,0,1-5.248,5.248H15.907a5.248,5.248,0,0,1-5.248-5.247V28.331A10.171,10.171,0,0,1,20.831,18.159h7.731A10.171,10.171,0,0,1,38.733,28.331Z" transform="translate(6.957 15.653)" fill="#f2664f"/>
    <path id="Tracé_103" data-name="Tracé 103" d="M21.218,25.435A9.718,9.718,0,1,0,11.5,15.718,9.718,9.718,0,0,0,21.218,25.435Zm0-17.276a7.558,7.558,0,1,1-7.558,7.558A7.558,7.558,0,0,1,21.218,8.159Z" transform="translate(10.435 4.058)" fill="#f2664f"/>
    <path id="Tracé_104" data-name="Tracé 104" d="M31.653,2.5A29.153,29.153,0,1,0,60.806,31.653,29.153,29.153,0,0,0,31.653,2.5Zm0,56.146A26.993,26.993,0,1,1,58.646,31.653,26.993,26.993,0,0,1,31.653,58.646Z" fill="#f2664f"/>
  </g>
</svg>
